M48
INCH,TZ
T1C0.0157
T2C0.0394
T3C0.0500
%
G90
G05
T1
X68740Y-70945
X70583Y-70031
X73500Y-64083
X78031Y-44354
X80157Y-68657
X81827Y-69386
X84075Y-73776
X84075Y-75098
X90291Y-65382
X90291Y-67071
X93118Y-73567
X93118Y-75016
T2
X67890Y-59158
X68390Y-58292
X68890Y-57426
X69390Y-56560
X78972Y-78437
X79972Y-78437
X80972Y-78437
X81972Y-78437
X87760Y-70653
X88260Y-69787
X88760Y-68921
X89260Y-68055
X91618Y-56555
X92118Y-57421
X92618Y-58287
X93118Y-59153
T3
X79622Y-57224
X80626Y-57224
X81630Y-57224
T0
M30
