G04 #@! TF.GenerationSoftware,KiCad,Pcbnew,(7.0.0)*
G04 #@! TF.CreationDate,2023-03-16T17:16:22-05:00*
G04 #@! TF.ProjectId,JJL_PCB,4a4a4c5f-5043-4422-9e6b-696361645f70,rev?*
G04 #@! TF.SameCoordinates,Original*
G04 #@! TF.FileFunction,Legend,Top*
G04 #@! TF.FilePolarity,Positive*
%FSLAX46Y46*%
G04 Gerber Fmt 4.6, Leading zero omitted, Abs format (unit mm)*
G04 Created by KiCad (PCBNEW (7.0.0)) date 2023-03-16 17:16:22*
%MOMM*%
%LPD*%
G01*
G04 APERTURE LIST*
%ADD10C,0.150000*%
%ADD11C,0.120000*%
%ADD12C,0.127000*%
%ADD13C,0.300000*%
G04 APERTURE END LIST*
D10*
G36*
X194603230Y-124064375D02*
G01*
X194602831Y-124124094D01*
X194601632Y-124182962D01*
X194599635Y-124240978D01*
X194596838Y-124298142D01*
X194593243Y-124354455D01*
X194588848Y-124409917D01*
X194583654Y-124464527D01*
X194577661Y-124518285D01*
X194570869Y-124571192D01*
X194563279Y-124623247D01*
X194554889Y-124674451D01*
X194545700Y-124724804D01*
X194535712Y-124774305D01*
X194524925Y-124822954D01*
X194513339Y-124870752D01*
X194487770Y-124963793D01*
X194459004Y-125053428D01*
X194427043Y-125139658D01*
X194391885Y-125222481D01*
X194353532Y-125301898D01*
X194311982Y-125377909D01*
X194267236Y-125450514D01*
X194219293Y-125519713D01*
X194194124Y-125553035D01*
X194141979Y-125616624D01*
X194087516Y-125676111D01*
X194030734Y-125731495D01*
X193971634Y-125782776D01*
X193910215Y-125829955D01*
X193846478Y-125873031D01*
X193780423Y-125912005D01*
X193712049Y-125946877D01*
X193641357Y-125977646D01*
X193568347Y-126004312D01*
X193493018Y-126026876D01*
X193415371Y-126045337D01*
X193335405Y-126059696D01*
X193253121Y-126069952D01*
X193168518Y-126076106D01*
X193081598Y-126078157D01*
X193021459Y-126077309D01*
X192963316Y-126074765D01*
X192907170Y-126070526D01*
X192853021Y-126064590D01*
X192800867Y-126056959D01*
X192750711Y-126047632D01*
X192702550Y-126036608D01*
X192641442Y-126019273D01*
X192583882Y-125998923D01*
X192543042Y-125981681D01*
X192543042Y-125296580D01*
X192583861Y-125326916D01*
X192626633Y-125354268D01*
X192671359Y-125378636D01*
X192718038Y-125400021D01*
X192766671Y-125418421D01*
X192817257Y-125433838D01*
X192869797Y-125446271D01*
X192924290Y-125455720D01*
X192980736Y-125462185D01*
X193039136Y-125465666D01*
X193079155Y-125466329D01*
X193130697Y-125464959D01*
X193180602Y-125460848D01*
X193275503Y-125444404D01*
X193363860Y-125416999D01*
X193445672Y-125378630D01*
X193520939Y-125329300D01*
X193589661Y-125269007D01*
X193651838Y-125197752D01*
X193680472Y-125158014D01*
X193707470Y-125115535D01*
X193732832Y-125070316D01*
X193756557Y-125022355D01*
X193778646Y-124971655D01*
X193799099Y-124918214D01*
X193817916Y-124862032D01*
X193835096Y-124803109D01*
X193850641Y-124741446D01*
X193864549Y-124677043D01*
X193876820Y-124609899D01*
X193887456Y-124540014D01*
X193896455Y-124467389D01*
X193903818Y-124392023D01*
X193909545Y-124313916D01*
X193913636Y-124233069D01*
X193916090Y-124149482D01*
X193916908Y-124063154D01*
X193916908Y-120685275D01*
X194603230Y-120685275D01*
X194603230Y-124064375D01*
G37*
G36*
X197250823Y-124064375D02*
G01*
X197250423Y-124124094D01*
X197249225Y-124182962D01*
X197247227Y-124240978D01*
X197244431Y-124298142D01*
X197240835Y-124354455D01*
X197236440Y-124409917D01*
X197231247Y-124464527D01*
X197225254Y-124518285D01*
X197218462Y-124571192D01*
X197210871Y-124623247D01*
X197202481Y-124674451D01*
X197193292Y-124724804D01*
X197183304Y-124774305D01*
X197172517Y-124822954D01*
X197160931Y-124870752D01*
X197135362Y-124963793D01*
X197106597Y-125053428D01*
X197074635Y-125139658D01*
X197039478Y-125222481D01*
X197001124Y-125301898D01*
X196959574Y-125377909D01*
X196914828Y-125450514D01*
X196866886Y-125519713D01*
X196841716Y-125553035D01*
X196789571Y-125616624D01*
X196735108Y-125676111D01*
X196678326Y-125731495D01*
X196619226Y-125782776D01*
X196557808Y-125829955D01*
X196494071Y-125873031D01*
X196428016Y-125912005D01*
X196359642Y-125946877D01*
X196288950Y-125977646D01*
X196215939Y-126004312D01*
X196140610Y-126026876D01*
X196062963Y-126045337D01*
X195982997Y-126059696D01*
X195900713Y-126069952D01*
X195816111Y-126076106D01*
X195729190Y-126078157D01*
X195669051Y-126077309D01*
X195610909Y-126074765D01*
X195554763Y-126070526D01*
X195500613Y-126064590D01*
X195448460Y-126056959D01*
X195398303Y-126047632D01*
X195350143Y-126036608D01*
X195289034Y-126019273D01*
X195231475Y-125998923D01*
X195190635Y-125981681D01*
X195190635Y-125296580D01*
X195231453Y-125326916D01*
X195274226Y-125354268D01*
X195318951Y-125378636D01*
X195365631Y-125400021D01*
X195414263Y-125418421D01*
X195464850Y-125433838D01*
X195517389Y-125446271D01*
X195571882Y-125455720D01*
X195628329Y-125462185D01*
X195686729Y-125465666D01*
X195726748Y-125466329D01*
X195778289Y-125464959D01*
X195828194Y-125460848D01*
X195923096Y-125444404D01*
X196011453Y-125416999D01*
X196093265Y-125378630D01*
X196168531Y-125329300D01*
X196237253Y-125269007D01*
X196299430Y-125197752D01*
X196328064Y-125158014D01*
X196355062Y-125115535D01*
X196380424Y-125070316D01*
X196404149Y-125022355D01*
X196426239Y-124971655D01*
X196446692Y-124918214D01*
X196465508Y-124862032D01*
X196482689Y-124803109D01*
X196498233Y-124741446D01*
X196512141Y-124677043D01*
X196524413Y-124609899D01*
X196535048Y-124540014D01*
X196544048Y-124467389D01*
X196551411Y-124392023D01*
X196557137Y-124313916D01*
X196561228Y-124233069D01*
X196563682Y-124149482D01*
X196564501Y-124063154D01*
X196564501Y-120685275D01*
X197250823Y-120685275D01*
X197250823Y-124064375D01*
G37*
G36*
X201247857Y-126000000D02*
G01*
X198442728Y-126000000D01*
X198442728Y-120685275D01*
X199129050Y-120685275D01*
X199129050Y-125391835D01*
X201247857Y-125391835D01*
X201247857Y-126000000D01*
G37*
G36*
X207077934Y-122170272D02*
G01*
X205573398Y-126000000D01*
X204893182Y-126000000D01*
X203464361Y-122170272D01*
X204199532Y-122170272D01*
X205126434Y-124909455D01*
X205146913Y-124970116D01*
X205165760Y-125028910D01*
X205182977Y-125085836D01*
X205198562Y-125140894D01*
X205212515Y-125194085D01*
X205224837Y-125245408D01*
X205235527Y-125294864D01*
X205247243Y-125357900D01*
X205256059Y-125417615D01*
X205260767Y-125460223D01*
X205277864Y-125460223D01*
X205284737Y-125406113D01*
X205292533Y-125352775D01*
X205301252Y-125300210D01*
X205310894Y-125248418D01*
X205321459Y-125197399D01*
X205332948Y-125147153D01*
X205345359Y-125097680D01*
X205358693Y-125048979D01*
X205372951Y-125001051D01*
X205388131Y-124953896D01*
X205398764Y-124922889D01*
X206370851Y-122170272D01*
X207077934Y-122170272D01*
G37*
G36*
X209047752Y-126000000D02*
G01*
X209047752Y-121497383D01*
X209004953Y-121537645D01*
X208955322Y-121579051D01*
X208913616Y-121610858D01*
X208868067Y-121643308D01*
X208818676Y-121676403D01*
X208765442Y-121710141D01*
X208708366Y-121744523D01*
X208647447Y-121779550D01*
X208604700Y-121803259D01*
X208560245Y-121827254D01*
X208514082Y-121851535D01*
X208467285Y-121875506D01*
X208420926Y-121898571D01*
X208375007Y-121920729D01*
X208329526Y-121941981D01*
X208284484Y-121962327D01*
X208217744Y-121991146D01*
X208151992Y-122017925D01*
X208087227Y-122042666D01*
X208023449Y-122065366D01*
X207960660Y-122086028D01*
X207898857Y-122104650D01*
X207838042Y-122121233D01*
X207817990Y-122126308D01*
X207817990Y-121466852D01*
X207871036Y-121451654D01*
X207924541Y-121435368D01*
X207978503Y-121417994D01*
X208032923Y-121399533D01*
X208087802Y-121379984D01*
X208143138Y-121359347D01*
X208198932Y-121337623D01*
X208255184Y-121314811D01*
X208311895Y-121290912D01*
X208369063Y-121265924D01*
X208426689Y-121239850D01*
X208484773Y-121212687D01*
X208543315Y-121184437D01*
X208602315Y-121155099D01*
X208661772Y-121124674D01*
X208721688Y-121093161D01*
X208780960Y-121061066D01*
X208838486Y-121029200D01*
X208894266Y-120997563D01*
X208948300Y-120966154D01*
X209000588Y-120934975D01*
X209051130Y-120904025D01*
X209099926Y-120873304D01*
X209146976Y-120842812D01*
X209192280Y-120812549D01*
X209235839Y-120782514D01*
X209277651Y-120752709D01*
X209317717Y-120723133D01*
X209374543Y-120679198D01*
X209427440Y-120635778D01*
X209460523Y-120607117D01*
X209714535Y-120607117D01*
X209714535Y-126000000D01*
X209047752Y-126000000D01*
G37*
G36*
X211602533Y-125642184D02*
G01*
X211605633Y-125585607D01*
X211614936Y-125531893D01*
X211630439Y-125481041D01*
X211652144Y-125433051D01*
X211680051Y-125387923D01*
X211714159Y-125345658D01*
X211729539Y-125329553D01*
X211770749Y-125292964D01*
X211815000Y-125262577D01*
X211862292Y-125238391D01*
X211912626Y-125220407D01*
X211966000Y-125208624D01*
X212022416Y-125203043D01*
X212045833Y-125202547D01*
X212104169Y-125205707D01*
X212159344Y-125215188D01*
X212211359Y-125230990D01*
X212260214Y-125253113D01*
X212305908Y-125281556D01*
X212348442Y-125316320D01*
X212364570Y-125331995D01*
X212401159Y-125373378D01*
X212431546Y-125417385D01*
X212455732Y-125464015D01*
X212473716Y-125513269D01*
X212485499Y-125565147D01*
X212491080Y-125619649D01*
X212491577Y-125642184D01*
X212488476Y-125696709D01*
X212479174Y-125748849D01*
X212463670Y-125798604D01*
X212441965Y-125845974D01*
X212414058Y-125890958D01*
X212379950Y-125933558D01*
X212364570Y-125949930D01*
X212323211Y-125986870D01*
X212278513Y-126017550D01*
X212230475Y-126041968D01*
X212179098Y-126060125D01*
X212124382Y-126072021D01*
X212066327Y-126077656D01*
X212042170Y-126078157D01*
X211984568Y-126075027D01*
X211930066Y-126065635D01*
X211878665Y-126049982D01*
X211830365Y-126028068D01*
X211785166Y-125999893D01*
X211743068Y-125965457D01*
X211727096Y-125949930D01*
X211691211Y-125908284D01*
X211661409Y-125864254D01*
X211637688Y-125817838D01*
X211620049Y-125769037D01*
X211608493Y-125717851D01*
X211603019Y-125664280D01*
X211602533Y-125642184D01*
G37*
G36*
X215114926Y-120609767D02*
G01*
X215215609Y-120617717D01*
X215312992Y-120630967D01*
X215407073Y-120649516D01*
X215497853Y-120673366D01*
X215585332Y-120702515D01*
X215669510Y-120736964D01*
X215750387Y-120776714D01*
X215827963Y-120821763D01*
X215902237Y-120872111D01*
X215973211Y-120927760D01*
X216040883Y-120988709D01*
X216105254Y-121054957D01*
X216166325Y-121126506D01*
X216224094Y-121203354D01*
X216278562Y-121285502D01*
X216329729Y-121372950D01*
X216377595Y-121465698D01*
X216422160Y-121563746D01*
X216463423Y-121667093D01*
X216501386Y-121775741D01*
X216536047Y-121889688D01*
X216567408Y-122008935D01*
X216595467Y-122133483D01*
X216620225Y-122263330D01*
X216641682Y-122398477D01*
X216659838Y-122538923D01*
X216674693Y-122684670D01*
X216686247Y-122835717D01*
X216694500Y-122992063D01*
X216699452Y-123153709D01*
X216701102Y-123320655D01*
X216700637Y-123403770D01*
X216699242Y-123485653D01*
X216696916Y-123566306D01*
X216693660Y-123645727D01*
X216689474Y-123723919D01*
X216684358Y-123800879D01*
X216678312Y-123876608D01*
X216671335Y-123951107D01*
X216663428Y-124024375D01*
X216654591Y-124096413D01*
X216644824Y-124167219D01*
X216634126Y-124236795D01*
X216622498Y-124305140D01*
X216609940Y-124372254D01*
X216596452Y-124438138D01*
X216582034Y-124502791D01*
X216566685Y-124566213D01*
X216550406Y-124628404D01*
X216533197Y-124689365D01*
X216515058Y-124749094D01*
X216495988Y-124807594D01*
X216475988Y-124864862D01*
X216455058Y-124920899D01*
X216433198Y-124975706D01*
X216410408Y-125029282D01*
X216386687Y-125081627D01*
X216362036Y-125132742D01*
X216336455Y-125182626D01*
X216309944Y-125231279D01*
X216282502Y-125278701D01*
X216254131Y-125324892D01*
X216224829Y-125369853D01*
X216194763Y-125413430D01*
X216163949Y-125455624D01*
X216132386Y-125496435D01*
X216100074Y-125535862D01*
X216067013Y-125573905D01*
X216033203Y-125610566D01*
X215998644Y-125645843D01*
X215963336Y-125679736D01*
X215890473Y-125743373D01*
X215814615Y-125801476D01*
X215735761Y-125854045D01*
X215653911Y-125901081D01*
X215569065Y-125942583D01*
X215481224Y-125978552D01*
X215390386Y-126008987D01*
X215296553Y-126033888D01*
X215248513Y-126044264D01*
X215199724Y-126053256D01*
X215150186Y-126060865D01*
X215099899Y-126067090D01*
X215048864Y-126071932D01*
X214997079Y-126075390D01*
X214944545Y-126077466D01*
X214891263Y-126078157D01*
X214840940Y-126077500D01*
X214791333Y-126075529D01*
X214742441Y-126072243D01*
X214646805Y-126061729D01*
X214554031Y-126045958D01*
X214464119Y-126024931D01*
X214377069Y-125998646D01*
X214292882Y-125967104D01*
X214211557Y-125930306D01*
X214133094Y-125888250D01*
X214057493Y-125840938D01*
X213984754Y-125788368D01*
X213914878Y-125730542D01*
X213847864Y-125667458D01*
X213783712Y-125599118D01*
X213722422Y-125525521D01*
X213663995Y-125446667D01*
X213635854Y-125405268D01*
X213608506Y-125362540D01*
X213582026Y-125318619D01*
X213556413Y-125273506D01*
X213531670Y-125227200D01*
X213507794Y-125179701D01*
X213484786Y-125131010D01*
X213462647Y-125081126D01*
X213441376Y-125030050D01*
X213420973Y-124977781D01*
X213401438Y-124924320D01*
X213382772Y-124869666D01*
X213364974Y-124813819D01*
X213348044Y-124756780D01*
X213331982Y-124698548D01*
X213316788Y-124639123D01*
X213302463Y-124578506D01*
X213289006Y-124516696D01*
X213276417Y-124453694D01*
X213264696Y-124389499D01*
X213253843Y-124324112D01*
X213243859Y-124257532D01*
X213234743Y-124189759D01*
X213226495Y-124120794D01*
X213219115Y-124050636D01*
X213212603Y-123979286D01*
X213206960Y-123906743D01*
X213202185Y-123833007D01*
X213198278Y-123758079D01*
X213195239Y-123681958D01*
X213193069Y-123604645D01*
X213191766Y-123526139D01*
X213191332Y-123446441D01*
X213191492Y-123415910D01*
X213877655Y-123415910D01*
X213878705Y-123545440D01*
X213881857Y-123670858D01*
X213887111Y-123792163D01*
X213894466Y-123909357D01*
X213903922Y-124022439D01*
X213915479Y-124131408D01*
X213929138Y-124236266D01*
X213944898Y-124337011D01*
X213962759Y-124433644D01*
X213982722Y-124526166D01*
X214004786Y-124614575D01*
X214028952Y-124698872D01*
X214055219Y-124779057D01*
X214083587Y-124855130D01*
X214114056Y-124927091D01*
X214146627Y-124994940D01*
X214181299Y-125058677D01*
X214218073Y-125118302D01*
X214256948Y-125173815D01*
X214297924Y-125225215D01*
X214341002Y-125272504D01*
X214386181Y-125315681D01*
X214433461Y-125354745D01*
X214482843Y-125389698D01*
X214534326Y-125420538D01*
X214587910Y-125447266D01*
X214643596Y-125469883D01*
X214701383Y-125488387D01*
X214761271Y-125502779D01*
X214823261Y-125513059D01*
X214887352Y-125519227D01*
X214953545Y-125521284D01*
X215018610Y-125519194D01*
X215081610Y-125512926D01*
X215142544Y-125502479D01*
X215201413Y-125487853D01*
X215258216Y-125469048D01*
X215312954Y-125446064D01*
X215365626Y-125418902D01*
X215416232Y-125387561D01*
X215464773Y-125352040D01*
X215511248Y-125312341D01*
X215555658Y-125268464D01*
X215598002Y-125220407D01*
X215638281Y-125168171D01*
X215676494Y-125111757D01*
X215712641Y-125051164D01*
X215746723Y-124986392D01*
X215778739Y-124917441D01*
X215808690Y-124844311D01*
X215836575Y-124767002D01*
X215862395Y-124685515D01*
X215886149Y-124599849D01*
X215907838Y-124510004D01*
X215927460Y-124415980D01*
X215945018Y-124317777D01*
X215960510Y-124215395D01*
X215973936Y-124108835D01*
X215985296Y-123998095D01*
X215994591Y-123883177D01*
X216001821Y-123764080D01*
X216006985Y-123640804D01*
X216010083Y-123513350D01*
X216011116Y-123381716D01*
X216010102Y-123245424D01*
X216007061Y-123113459D01*
X216001993Y-122985821D01*
X215994897Y-122862509D01*
X215985773Y-122743524D01*
X215974623Y-122628866D01*
X215961445Y-122518535D01*
X215946239Y-122412530D01*
X215929006Y-122310852D01*
X215909746Y-122213501D01*
X215888458Y-122120476D01*
X215865143Y-122031778D01*
X215839800Y-121947407D01*
X215812430Y-121867363D01*
X215783033Y-121791645D01*
X215751608Y-121720254D01*
X215718156Y-121653190D01*
X215682676Y-121590452D01*
X215645169Y-121532042D01*
X215605635Y-121477958D01*
X215564073Y-121428200D01*
X215520484Y-121382770D01*
X215474867Y-121341666D01*
X215427223Y-121304889D01*
X215377552Y-121272438D01*
X215325853Y-121244315D01*
X215272126Y-121220518D01*
X215216373Y-121201047D01*
X215158592Y-121185904D01*
X215098783Y-121175087D01*
X215036947Y-121168597D01*
X214973084Y-121166434D01*
X214905689Y-121168630D01*
X214840434Y-121175221D01*
X214777319Y-121186204D01*
X214716343Y-121201582D01*
X214657506Y-121221352D01*
X214600809Y-121245517D01*
X214546252Y-121274075D01*
X214493834Y-121307026D01*
X214443555Y-121344371D01*
X214395416Y-121386109D01*
X214349417Y-121432241D01*
X214305557Y-121482766D01*
X214263836Y-121537685D01*
X214224255Y-121596997D01*
X214186814Y-121660703D01*
X214151512Y-121728803D01*
X214118350Y-121801296D01*
X214087327Y-121878182D01*
X214058443Y-121959462D01*
X214031699Y-122045135D01*
X214007095Y-122135202D01*
X213984630Y-122229663D01*
X213964305Y-122328517D01*
X213946119Y-122431764D01*
X213930073Y-122539405D01*
X213916166Y-122651440D01*
X213904399Y-122767868D01*
X213894771Y-122888689D01*
X213887283Y-123013904D01*
X213881934Y-123143513D01*
X213878725Y-123277515D01*
X213877655Y-123415910D01*
X213191492Y-123415910D01*
X213191788Y-123359560D01*
X213193155Y-123274011D01*
X213195432Y-123189792D01*
X213198621Y-123106905D01*
X213202722Y-123025348D01*
X213207733Y-122945123D01*
X213213655Y-122866228D01*
X213220489Y-122788664D01*
X213228234Y-122712431D01*
X213236889Y-122637529D01*
X213246456Y-122563958D01*
X213256934Y-122491718D01*
X213268324Y-122420809D01*
X213280624Y-122351231D01*
X213293836Y-122282984D01*
X213307958Y-122216067D01*
X213322992Y-122150482D01*
X213338937Y-122086227D01*
X213355793Y-122023304D01*
X213373560Y-121961711D01*
X213392239Y-121901449D01*
X213411828Y-121842519D01*
X213432329Y-121784919D01*
X213453741Y-121728650D01*
X213476064Y-121673712D01*
X213499298Y-121620105D01*
X213523443Y-121567829D01*
X213548499Y-121516884D01*
X213574467Y-121467270D01*
X213601346Y-121418986D01*
X213629135Y-121372034D01*
X213657836Y-121326413D01*
X213687477Y-121282159D01*
X213717933Y-121239310D01*
X213749205Y-121197867D01*
X213781293Y-121157828D01*
X213814197Y-121119194D01*
X213847916Y-121081965D01*
X213882451Y-121046140D01*
X213917802Y-121011721D01*
X213953969Y-120978706D01*
X214028749Y-120916892D01*
X214106792Y-120860697D01*
X214188098Y-120810122D01*
X214272667Y-120765166D01*
X214360500Y-120725829D01*
X214451594Y-120692112D01*
X214498366Y-120677361D01*
X214545952Y-120664015D01*
X214594355Y-120652073D01*
X214643573Y-120641537D01*
X214693607Y-120632405D01*
X214744457Y-120624678D01*
X214796122Y-120618356D01*
X214848604Y-120613439D01*
X214901901Y-120609927D01*
X214956013Y-120607820D01*
X215010942Y-120607117D01*
X215114926Y-120609767D01*
G37*
X193083809Y-127842380D02*
X193083809Y-128556666D01*
X193083809Y-128556666D02*
X193036190Y-128699523D01*
X193036190Y-128699523D02*
X192940952Y-128794761D01*
X192940952Y-128794761D02*
X192798095Y-128842380D01*
X192798095Y-128842380D02*
X192702857Y-128842380D01*
X193988571Y-128842380D02*
X193988571Y-128318571D01*
X193988571Y-128318571D02*
X193940952Y-128223333D01*
X193940952Y-128223333D02*
X193845714Y-128175714D01*
X193845714Y-128175714D02*
X193655238Y-128175714D01*
X193655238Y-128175714D02*
X193560000Y-128223333D01*
X193988571Y-128794761D02*
X193893333Y-128842380D01*
X193893333Y-128842380D02*
X193655238Y-128842380D01*
X193655238Y-128842380D02*
X193560000Y-128794761D01*
X193560000Y-128794761D02*
X193512381Y-128699523D01*
X193512381Y-128699523D02*
X193512381Y-128604285D01*
X193512381Y-128604285D02*
X193560000Y-128509047D01*
X193560000Y-128509047D02*
X193655238Y-128461428D01*
X193655238Y-128461428D02*
X193893333Y-128461428D01*
X193893333Y-128461428D02*
X193988571Y-128413809D01*
X194464762Y-128842380D02*
X194464762Y-128175714D01*
X194464762Y-128270952D02*
X194512381Y-128223333D01*
X194512381Y-128223333D02*
X194607619Y-128175714D01*
X194607619Y-128175714D02*
X194750476Y-128175714D01*
X194750476Y-128175714D02*
X194845714Y-128223333D01*
X194845714Y-128223333D02*
X194893333Y-128318571D01*
X194893333Y-128318571D02*
X194893333Y-128842380D01*
X194893333Y-128318571D02*
X194940952Y-128223333D01*
X194940952Y-128223333D02*
X195036190Y-128175714D01*
X195036190Y-128175714D02*
X195179047Y-128175714D01*
X195179047Y-128175714D02*
X195274286Y-128223333D01*
X195274286Y-128223333D02*
X195321905Y-128318571D01*
X195321905Y-128318571D02*
X195321905Y-128842380D01*
X196179047Y-128794761D02*
X196083809Y-128842380D01*
X196083809Y-128842380D02*
X195893333Y-128842380D01*
X195893333Y-128842380D02*
X195798095Y-128794761D01*
X195798095Y-128794761D02*
X195750476Y-128699523D01*
X195750476Y-128699523D02*
X195750476Y-128318571D01*
X195750476Y-128318571D02*
X195798095Y-128223333D01*
X195798095Y-128223333D02*
X195893333Y-128175714D01*
X195893333Y-128175714D02*
X196083809Y-128175714D01*
X196083809Y-128175714D02*
X196179047Y-128223333D01*
X196179047Y-128223333D02*
X196226666Y-128318571D01*
X196226666Y-128318571D02*
X196226666Y-128413809D01*
X196226666Y-128413809D02*
X195750476Y-128509047D01*
X196607619Y-128794761D02*
X196702857Y-128842380D01*
X196702857Y-128842380D02*
X196893333Y-128842380D01*
X196893333Y-128842380D02*
X196988571Y-128794761D01*
X196988571Y-128794761D02*
X197036190Y-128699523D01*
X197036190Y-128699523D02*
X197036190Y-128651904D01*
X197036190Y-128651904D02*
X196988571Y-128556666D01*
X196988571Y-128556666D02*
X196893333Y-128509047D01*
X196893333Y-128509047D02*
X196750476Y-128509047D01*
X196750476Y-128509047D02*
X196655238Y-128461428D01*
X196655238Y-128461428D02*
X196607619Y-128366190D01*
X196607619Y-128366190D02*
X196607619Y-128318571D01*
X196607619Y-128318571D02*
X196655238Y-128223333D01*
X196655238Y-128223333D02*
X196750476Y-128175714D01*
X196750476Y-128175714D02*
X196893333Y-128175714D01*
X196893333Y-128175714D02*
X196988571Y-128223333D01*
X198064762Y-128842380D02*
X198064762Y-127842380D01*
X198064762Y-127842380D02*
X198398095Y-128556666D01*
X198398095Y-128556666D02*
X198731428Y-127842380D01*
X198731428Y-127842380D02*
X198731428Y-128842380D01*
X199588571Y-128794761D02*
X199493333Y-128842380D01*
X199493333Y-128842380D02*
X199302857Y-128842380D01*
X199302857Y-128842380D02*
X199207619Y-128794761D01*
X199207619Y-128794761D02*
X199160000Y-128699523D01*
X199160000Y-128699523D02*
X199160000Y-128318571D01*
X199160000Y-128318571D02*
X199207619Y-128223333D01*
X199207619Y-128223333D02*
X199302857Y-128175714D01*
X199302857Y-128175714D02*
X199493333Y-128175714D01*
X199493333Y-128175714D02*
X199588571Y-128223333D01*
X199588571Y-128223333D02*
X199636190Y-128318571D01*
X199636190Y-128318571D02*
X199636190Y-128413809D01*
X199636190Y-128413809D02*
X199160000Y-128509047D01*
X200064762Y-128175714D02*
X200064762Y-128842380D01*
X200064762Y-128270952D02*
X200112381Y-128223333D01*
X200112381Y-128223333D02*
X200207619Y-128175714D01*
X200207619Y-128175714D02*
X200350476Y-128175714D01*
X200350476Y-128175714D02*
X200445714Y-128223333D01*
X200445714Y-128223333D02*
X200493333Y-128318571D01*
X200493333Y-128318571D02*
X200493333Y-128842380D01*
X201350476Y-128794761D02*
X201255238Y-128842380D01*
X201255238Y-128842380D02*
X201064762Y-128842380D01*
X201064762Y-128842380D02*
X200969524Y-128794761D01*
X200969524Y-128794761D02*
X200921905Y-128699523D01*
X200921905Y-128699523D02*
X200921905Y-128318571D01*
X200921905Y-128318571D02*
X200969524Y-128223333D01*
X200969524Y-128223333D02*
X201064762Y-128175714D01*
X201064762Y-128175714D02*
X201255238Y-128175714D01*
X201255238Y-128175714D02*
X201350476Y-128223333D01*
X201350476Y-128223333D02*
X201398095Y-128318571D01*
X201398095Y-128318571D02*
X201398095Y-128413809D01*
X201398095Y-128413809D02*
X200921905Y-128509047D01*
X201731429Y-128175714D02*
X202255238Y-128175714D01*
X202255238Y-128175714D02*
X201731429Y-128842380D01*
X201731429Y-128842380D02*
X202255238Y-128842380D01*
X203017143Y-128794761D02*
X202921905Y-128842380D01*
X202921905Y-128842380D02*
X202731429Y-128842380D01*
X202731429Y-128842380D02*
X202636191Y-128794761D01*
X202636191Y-128794761D02*
X202588572Y-128699523D01*
X202588572Y-128699523D02*
X202588572Y-128318571D01*
X202588572Y-128318571D02*
X202636191Y-128223333D01*
X202636191Y-128223333D02*
X202731429Y-128175714D01*
X202731429Y-128175714D02*
X202921905Y-128175714D01*
X202921905Y-128175714D02*
X203017143Y-128223333D01*
X203017143Y-128223333D02*
X203064762Y-128318571D01*
X203064762Y-128318571D02*
X203064762Y-128413809D01*
X203064762Y-128413809D02*
X202588572Y-128509047D01*
X203445715Y-128794761D02*
X203540953Y-128842380D01*
X203540953Y-128842380D02*
X203731429Y-128842380D01*
X203731429Y-128842380D02*
X203826667Y-128794761D01*
X203826667Y-128794761D02*
X203874286Y-128699523D01*
X203874286Y-128699523D02*
X203874286Y-128651904D01*
X203874286Y-128651904D02*
X203826667Y-128556666D01*
X203826667Y-128556666D02*
X203731429Y-128509047D01*
X203731429Y-128509047D02*
X203588572Y-128509047D01*
X203588572Y-128509047D02*
X203493334Y-128461428D01*
X203493334Y-128461428D02*
X203445715Y-128366190D01*
X203445715Y-128366190D02*
X203445715Y-128318571D01*
X203445715Y-128318571D02*
X203493334Y-128223333D01*
X203493334Y-128223333D02*
X203588572Y-128175714D01*
X203588572Y-128175714D02*
X203731429Y-128175714D01*
X203731429Y-128175714D02*
X203826667Y-128223333D01*
X205331429Y-128842380D02*
X205331429Y-128318571D01*
X205331429Y-128318571D02*
X205283810Y-128223333D01*
X205283810Y-128223333D02*
X205188572Y-128175714D01*
X205188572Y-128175714D02*
X204998096Y-128175714D01*
X204998096Y-128175714D02*
X204902858Y-128223333D01*
X205331429Y-128794761D02*
X205236191Y-128842380D01*
X205236191Y-128842380D02*
X204998096Y-128842380D01*
X204998096Y-128842380D02*
X204902858Y-128794761D01*
X204902858Y-128794761D02*
X204855239Y-128699523D01*
X204855239Y-128699523D02*
X204855239Y-128604285D01*
X204855239Y-128604285D02*
X204902858Y-128509047D01*
X204902858Y-128509047D02*
X204998096Y-128461428D01*
X204998096Y-128461428D02*
X205236191Y-128461428D01*
X205236191Y-128461428D02*
X205331429Y-128413809D01*
X205807620Y-128175714D02*
X205807620Y-128842380D01*
X205807620Y-128270952D02*
X205855239Y-128223333D01*
X205855239Y-128223333D02*
X205950477Y-128175714D01*
X205950477Y-128175714D02*
X206093334Y-128175714D01*
X206093334Y-128175714D02*
X206188572Y-128223333D01*
X206188572Y-128223333D02*
X206236191Y-128318571D01*
X206236191Y-128318571D02*
X206236191Y-128842380D01*
X207140953Y-128842380D02*
X207140953Y-127842380D01*
X207140953Y-128794761D02*
X207045715Y-128842380D01*
X207045715Y-128842380D02*
X206855239Y-128842380D01*
X206855239Y-128842380D02*
X206760001Y-128794761D01*
X206760001Y-128794761D02*
X206712382Y-128747142D01*
X206712382Y-128747142D02*
X206664763Y-128651904D01*
X206664763Y-128651904D02*
X206664763Y-128366190D01*
X206664763Y-128366190D02*
X206712382Y-128270952D01*
X206712382Y-128270952D02*
X206760001Y-128223333D01*
X206760001Y-128223333D02*
X206855239Y-128175714D01*
X206855239Y-128175714D02*
X207045715Y-128175714D01*
X207045715Y-128175714D02*
X207140953Y-128223333D01*
X208502858Y-127842380D02*
X208502858Y-128556666D01*
X208502858Y-128556666D02*
X208455239Y-128699523D01*
X208455239Y-128699523D02*
X208360001Y-128794761D01*
X208360001Y-128794761D02*
X208217144Y-128842380D01*
X208217144Y-128842380D02*
X208121906Y-128842380D01*
X209407620Y-128842380D02*
X209407620Y-128318571D01*
X209407620Y-128318571D02*
X209360001Y-128223333D01*
X209360001Y-128223333D02*
X209264763Y-128175714D01*
X209264763Y-128175714D02*
X209074287Y-128175714D01*
X209074287Y-128175714D02*
X208979049Y-128223333D01*
X209407620Y-128794761D02*
X209312382Y-128842380D01*
X209312382Y-128842380D02*
X209074287Y-128842380D01*
X209074287Y-128842380D02*
X208979049Y-128794761D01*
X208979049Y-128794761D02*
X208931430Y-128699523D01*
X208931430Y-128699523D02*
X208931430Y-128604285D01*
X208931430Y-128604285D02*
X208979049Y-128509047D01*
X208979049Y-128509047D02*
X209074287Y-128461428D01*
X209074287Y-128461428D02*
X209312382Y-128461428D01*
X209312382Y-128461428D02*
X209407620Y-128413809D01*
X209883811Y-128842380D02*
X209883811Y-127842380D01*
X209979049Y-128461428D02*
X210264763Y-128842380D01*
X210264763Y-128175714D02*
X209883811Y-128556666D01*
X211074287Y-128794761D02*
X210979049Y-128842380D01*
X210979049Y-128842380D02*
X210788573Y-128842380D01*
X210788573Y-128842380D02*
X210693335Y-128794761D01*
X210693335Y-128794761D02*
X210645716Y-128699523D01*
X210645716Y-128699523D02*
X210645716Y-128318571D01*
X210645716Y-128318571D02*
X210693335Y-128223333D01*
X210693335Y-128223333D02*
X210788573Y-128175714D01*
X210788573Y-128175714D02*
X210979049Y-128175714D01*
X210979049Y-128175714D02*
X211074287Y-128223333D01*
X211074287Y-128223333D02*
X211121906Y-128318571D01*
X211121906Y-128318571D02*
X211121906Y-128413809D01*
X211121906Y-128413809D02*
X210645716Y-128509047D01*
X212150478Y-128842380D02*
X212150478Y-127842380D01*
X212150478Y-128318571D02*
X212721906Y-128318571D01*
X212721906Y-128842380D02*
X212721906Y-127842380D01*
X213626668Y-128842380D02*
X213626668Y-128318571D01*
X213626668Y-128318571D02*
X213579049Y-128223333D01*
X213579049Y-128223333D02*
X213483811Y-128175714D01*
X213483811Y-128175714D02*
X213293335Y-128175714D01*
X213293335Y-128175714D02*
X213198097Y-128223333D01*
X213626668Y-128794761D02*
X213531430Y-128842380D01*
X213531430Y-128842380D02*
X213293335Y-128842380D01*
X213293335Y-128842380D02*
X213198097Y-128794761D01*
X213198097Y-128794761D02*
X213150478Y-128699523D01*
X213150478Y-128699523D02*
X213150478Y-128604285D01*
X213150478Y-128604285D02*
X213198097Y-128509047D01*
X213198097Y-128509047D02*
X213293335Y-128461428D01*
X213293335Y-128461428D02*
X213531430Y-128461428D01*
X213531430Y-128461428D02*
X213626668Y-128413809D01*
X214007621Y-128175714D02*
X214245716Y-128842380D01*
X214483811Y-128175714D02*
X214245716Y-128842380D01*
X214245716Y-128842380D02*
X214150478Y-129080476D01*
X214150478Y-129080476D02*
X214102859Y-129128095D01*
X214102859Y-129128095D02*
X214007621Y-129175714D01*
X215245716Y-128794761D02*
X215150478Y-128842380D01*
X215150478Y-128842380D02*
X214960002Y-128842380D01*
X214960002Y-128842380D02*
X214864764Y-128794761D01*
X214864764Y-128794761D02*
X214817145Y-128699523D01*
X214817145Y-128699523D02*
X214817145Y-128318571D01*
X214817145Y-128318571D02*
X214864764Y-128223333D01*
X214864764Y-128223333D02*
X214960002Y-128175714D01*
X214960002Y-128175714D02*
X215150478Y-128175714D01*
X215150478Y-128175714D02*
X215245716Y-128223333D01*
X215245716Y-128223333D02*
X215293335Y-128318571D01*
X215293335Y-128318571D02*
X215293335Y-128413809D01*
X215293335Y-128413809D02*
X214817145Y-128509047D01*
X215674288Y-128794761D02*
X215769526Y-128842380D01*
X215769526Y-128842380D02*
X215960002Y-128842380D01*
X215960002Y-128842380D02*
X216055240Y-128794761D01*
X216055240Y-128794761D02*
X216102859Y-128699523D01*
X216102859Y-128699523D02*
X216102859Y-128651904D01*
X216102859Y-128651904D02*
X216055240Y-128556666D01*
X216055240Y-128556666D02*
X215960002Y-128509047D01*
X215960002Y-128509047D02*
X215817145Y-128509047D01*
X215817145Y-128509047D02*
X215721907Y-128461428D01*
X215721907Y-128461428D02*
X215674288Y-128366190D01*
X215674288Y-128366190D02*
X215674288Y-128318571D01*
X215674288Y-128318571D02*
X215721907Y-128223333D01*
X215721907Y-128223333D02*
X215817145Y-128175714D01*
X215817145Y-128175714D02*
X215960002Y-128175714D01*
X215960002Y-128175714D02*
X216055240Y-128223333D01*
X230940015Y-141250067D02*
X231297158Y-141868657D01*
X231297158Y-141868657D02*
X231327347Y-142016184D01*
X231327347Y-142016184D02*
X231292487Y-142146282D01*
X231292487Y-142146282D02*
X231192579Y-142258950D01*
X231192579Y-142258950D02*
X231110100Y-142306569D01*
X231358788Y-141118260D02*
X231376217Y-141053211D01*
X231376217Y-141053211D02*
X231434887Y-140964353D01*
X231434887Y-140964353D02*
X231641083Y-140845305D01*
X231641083Y-140845305D02*
X231747371Y-140838925D01*
X231747371Y-140838925D02*
X231812420Y-140856355D01*
X231812420Y-140856355D02*
X231901278Y-140915024D01*
X231901278Y-140915024D02*
X231948897Y-140997503D01*
X231948897Y-140997503D02*
X231979087Y-141145030D01*
X231979087Y-141145030D02*
X231769929Y-141925616D01*
X231769929Y-141925616D02*
X232306040Y-141616092D01*
X171302634Y-151564205D02*
X170945491Y-152182794D01*
X170945491Y-152182794D02*
X170832823Y-152282703D01*
X170832823Y-152282703D02*
X170702725Y-152317562D01*
X170702725Y-152317562D02*
X170555198Y-152287373D01*
X170555198Y-152287373D02*
X170472719Y-152239754D01*
X171632548Y-151754681D02*
X172168659Y-152064205D01*
X172168659Y-152064205D02*
X171689508Y-152227452D01*
X171689508Y-152227452D02*
X171813226Y-152298881D01*
X171813226Y-152298881D02*
X171871895Y-152387739D01*
X171871895Y-152387739D02*
X171889325Y-152452788D01*
X171889325Y-152452788D02*
X171882945Y-152559076D01*
X171882945Y-152559076D02*
X171763897Y-152765273D01*
X171763897Y-152765273D02*
X171675039Y-152823942D01*
X171675039Y-152823942D02*
X171609990Y-152841372D01*
X171609990Y-152841372D02*
X171503702Y-152834992D01*
X171503702Y-152834992D02*
X171256266Y-152692135D01*
X171256266Y-152692135D02*
X171197597Y-152603277D01*
X171197597Y-152603277D02*
X171180167Y-152538228D01*
X209907380Y-199563333D02*
X210621666Y-199563333D01*
X210621666Y-199563333D02*
X210764523Y-199610952D01*
X210764523Y-199610952D02*
X210859761Y-199706190D01*
X210859761Y-199706190D02*
X210907380Y-199849047D01*
X210907380Y-199849047D02*
X210907380Y-199944285D01*
X210240714Y-198658571D02*
X210907380Y-198658571D01*
X209859761Y-198896666D02*
X210574047Y-199134761D01*
X210574047Y-199134761D02*
X210574047Y-198515714D01*
X210346653Y-159371848D02*
X210632367Y-159866720D01*
X209623485Y-160119284D02*
X210489510Y-159619284D01*
X209933009Y-160655395D02*
X210799034Y-160155395D01*
X210799034Y-160155395D02*
X210989510Y-160485310D01*
X210989510Y-160485310D02*
X210995890Y-160591598D01*
X210995890Y-160591598D02*
X210978460Y-160656647D01*
X210978460Y-160656647D02*
X210919791Y-160745505D01*
X210919791Y-160745505D02*
X210796073Y-160816934D01*
X210796073Y-160816934D02*
X210689785Y-160823313D01*
X210689785Y-160823313D02*
X210624736Y-160805884D01*
X210624736Y-160805884D02*
X210535878Y-160747214D01*
X210535878Y-160747214D02*
X210345402Y-160417300D01*
X211192746Y-161027800D02*
X211257795Y-161045230D01*
X211257795Y-161045230D02*
X211346653Y-161103899D01*
X211346653Y-161103899D02*
X211465701Y-161310096D01*
X211465701Y-161310096D02*
X211472081Y-161416384D01*
X211472081Y-161416384D02*
X211454651Y-161481433D01*
X211454651Y-161481433D02*
X211395982Y-161570291D01*
X211395982Y-161570291D02*
X211313503Y-161617910D01*
X211313503Y-161617910D02*
X211165976Y-161648099D01*
X211165976Y-161648099D02*
X210385390Y-161438942D01*
X210385390Y-161438942D02*
X210694914Y-161975053D01*
X203138095Y-170817380D02*
X203709523Y-170817380D01*
X203423809Y-171817380D02*
X203423809Y-170817380D01*
X204042857Y-171817380D02*
X204042857Y-170817380D01*
X204042857Y-170817380D02*
X204423809Y-170817380D01*
X204423809Y-170817380D02*
X204519047Y-170865000D01*
X204519047Y-170865000D02*
X204566666Y-170912619D01*
X204566666Y-170912619D02*
X204614285Y-171007857D01*
X204614285Y-171007857D02*
X204614285Y-171150714D01*
X204614285Y-171150714D02*
X204566666Y-171245952D01*
X204566666Y-171245952D02*
X204519047Y-171293571D01*
X204519047Y-171293571D02*
X204423809Y-171341190D01*
X204423809Y-171341190D02*
X204042857Y-171341190D01*
X204947619Y-170817380D02*
X205566666Y-170817380D01*
X205566666Y-170817380D02*
X205233333Y-171198333D01*
X205233333Y-171198333D02*
X205376190Y-171198333D01*
X205376190Y-171198333D02*
X205471428Y-171245952D01*
X205471428Y-171245952D02*
X205519047Y-171293571D01*
X205519047Y-171293571D02*
X205566666Y-171388809D01*
X205566666Y-171388809D02*
X205566666Y-171626904D01*
X205566666Y-171626904D02*
X205519047Y-171722142D01*
X205519047Y-171722142D02*
X205471428Y-171769761D01*
X205471428Y-171769761D02*
X205376190Y-171817380D01*
X205376190Y-171817380D02*
X205090476Y-171817380D01*
X205090476Y-171817380D02*
X204995238Y-171769761D01*
X204995238Y-171769761D02*
X204947619Y-171722142D01*
X193037380Y-157081904D02*
X193846904Y-157081904D01*
X193846904Y-157081904D02*
X193942142Y-157034285D01*
X193942142Y-157034285D02*
X193989761Y-156986666D01*
X193989761Y-156986666D02*
X194037380Y-156891428D01*
X194037380Y-156891428D02*
X194037380Y-156700952D01*
X194037380Y-156700952D02*
X193989761Y-156605714D01*
X193989761Y-156605714D02*
X193942142Y-156558095D01*
X193942142Y-156558095D02*
X193846904Y-156510476D01*
X193846904Y-156510476D02*
X193037380Y-156510476D01*
X193037380Y-156129523D02*
X193037380Y-155510476D01*
X193037380Y-155510476D02*
X193418333Y-155843809D01*
X193418333Y-155843809D02*
X193418333Y-155700952D01*
X193418333Y-155700952D02*
X193465952Y-155605714D01*
X193465952Y-155605714D02*
X193513571Y-155558095D01*
X193513571Y-155558095D02*
X193608809Y-155510476D01*
X193608809Y-155510476D02*
X193846904Y-155510476D01*
X193846904Y-155510476D02*
X193942142Y-155558095D01*
X193942142Y-155558095D02*
X193989761Y-155605714D01*
X193989761Y-155605714D02*
X194037380Y-155700952D01*
X194037380Y-155700952D02*
X194037380Y-155986666D01*
X194037380Y-155986666D02*
X193989761Y-156081904D01*
X193989761Y-156081904D02*
X193942142Y-156129523D01*
X203798540Y-148926678D02*
X203798540Y-149980104D01*
X203798540Y-149980104D02*
X203860506Y-150104037D01*
X203860506Y-150104037D02*
X203922472Y-150166003D01*
X203922472Y-150166003D02*
X204046405Y-150227969D01*
X204046405Y-150227969D02*
X204294270Y-150227969D01*
X204294270Y-150227969D02*
X204418202Y-150166003D01*
X204418202Y-150166003D02*
X204480168Y-150104037D01*
X204480168Y-150104037D02*
X204542135Y-149980104D01*
X204542135Y-149980104D02*
X204542135Y-148926678D01*
X205099830Y-149050611D02*
X205161797Y-148988645D01*
X205161797Y-148988645D02*
X205285729Y-148926678D01*
X205285729Y-148926678D02*
X205595560Y-148926678D01*
X205595560Y-148926678D02*
X205719493Y-148988645D01*
X205719493Y-148988645D02*
X205781459Y-149050611D01*
X205781459Y-149050611D02*
X205843425Y-149174543D01*
X205843425Y-149174543D02*
X205843425Y-149298476D01*
X205843425Y-149298476D02*
X205781459Y-149484374D01*
X205781459Y-149484374D02*
X205037864Y-150227969D01*
X205037864Y-150227969D02*
X205843425Y-150227969D01*
X188493333Y-172292142D02*
X188445714Y-172339761D01*
X188445714Y-172339761D02*
X188302857Y-172387380D01*
X188302857Y-172387380D02*
X188207619Y-172387380D01*
X188207619Y-172387380D02*
X188064762Y-172339761D01*
X188064762Y-172339761D02*
X187969524Y-172244523D01*
X187969524Y-172244523D02*
X187921905Y-172149285D01*
X187921905Y-172149285D02*
X187874286Y-171958809D01*
X187874286Y-171958809D02*
X187874286Y-171815952D01*
X187874286Y-171815952D02*
X187921905Y-171625476D01*
X187921905Y-171625476D02*
X187969524Y-171530238D01*
X187969524Y-171530238D02*
X188064762Y-171435000D01*
X188064762Y-171435000D02*
X188207619Y-171387380D01*
X188207619Y-171387380D02*
X188302857Y-171387380D01*
X188302857Y-171387380D02*
X188445714Y-171435000D01*
X188445714Y-171435000D02*
X188493333Y-171482619D01*
X189445714Y-172387380D02*
X188874286Y-172387380D01*
X189160000Y-172387380D02*
X189160000Y-171387380D01*
X189160000Y-171387380D02*
X189064762Y-171530238D01*
X189064762Y-171530238D02*
X188969524Y-171625476D01*
X188969524Y-171625476D02*
X188874286Y-171673095D01*
X193887380Y-180151904D02*
X194696904Y-180151904D01*
X194696904Y-180151904D02*
X194792142Y-180104285D01*
X194792142Y-180104285D02*
X194839761Y-180056666D01*
X194839761Y-180056666D02*
X194887380Y-179961428D01*
X194887380Y-179961428D02*
X194887380Y-179770952D01*
X194887380Y-179770952D02*
X194839761Y-179675714D01*
X194839761Y-179675714D02*
X194792142Y-179628095D01*
X194792142Y-179628095D02*
X194696904Y-179580476D01*
X194696904Y-179580476D02*
X193887380Y-179580476D01*
X194887380Y-178580476D02*
X194887380Y-179151904D01*
X194887380Y-178866190D02*
X193887380Y-178866190D01*
X193887380Y-178866190D02*
X194030238Y-178961428D01*
X194030238Y-178961428D02*
X194125476Y-179056666D01*
X194125476Y-179056666D02*
X194173095Y-179151904D01*
X197231441Y-161557532D02*
X197517155Y-161062660D01*
X198240323Y-161810096D02*
X197374298Y-161310096D01*
X198549847Y-161273985D02*
X197683822Y-160773985D01*
X197683822Y-160773985D02*
X197874298Y-160444070D01*
X197874298Y-160444070D02*
X197963156Y-160385401D01*
X197963156Y-160385401D02*
X198028205Y-160367971D01*
X198028205Y-160367971D02*
X198134493Y-160374351D01*
X198134493Y-160374351D02*
X198258211Y-160445780D01*
X198258211Y-160445780D02*
X198316880Y-160534638D01*
X198316880Y-160534638D02*
X198334310Y-160599687D01*
X198334310Y-160599687D02*
X198327930Y-160705975D01*
X198327930Y-160705975D02*
X198137454Y-161035889D01*
X199311752Y-159954327D02*
X199026038Y-160449199D01*
X199168895Y-160201763D02*
X198302870Y-159701763D01*
X198302870Y-159701763D02*
X198378968Y-159855670D01*
X198378968Y-159855670D02*
X198413828Y-159985768D01*
X198413828Y-159985768D02*
X198407448Y-160092056D01*
X231680155Y-172372386D02*
X231323012Y-172990975D01*
X231323012Y-172990975D02*
X231210344Y-173090884D01*
X231210344Y-173090884D02*
X231080246Y-173125743D01*
X231080246Y-173125743D02*
X230932719Y-173095554D01*
X230932719Y-173095554D02*
X230850240Y-173047935D01*
X232046180Y-173738411D02*
X231551309Y-173452697D01*
X231798745Y-173595554D02*
X232298745Y-172729529D01*
X232298745Y-172729529D02*
X232144837Y-172805627D01*
X232144837Y-172805627D02*
X232014740Y-172840487D01*
X232014740Y-172840487D02*
X231908452Y-172834107D01*
X191653333Y-152272142D02*
X191605714Y-152319761D01*
X191605714Y-152319761D02*
X191462857Y-152367380D01*
X191462857Y-152367380D02*
X191367619Y-152367380D01*
X191367619Y-152367380D02*
X191224762Y-152319761D01*
X191224762Y-152319761D02*
X191129524Y-152224523D01*
X191129524Y-152224523D02*
X191081905Y-152129285D01*
X191081905Y-152129285D02*
X191034286Y-151938809D01*
X191034286Y-151938809D02*
X191034286Y-151795952D01*
X191034286Y-151795952D02*
X191081905Y-151605476D01*
X191081905Y-151605476D02*
X191129524Y-151510238D01*
X191129524Y-151510238D02*
X191224762Y-151415000D01*
X191224762Y-151415000D02*
X191367619Y-151367380D01*
X191367619Y-151367380D02*
X191462857Y-151367380D01*
X191462857Y-151367380D02*
X191605714Y-151415000D01*
X191605714Y-151415000D02*
X191653333Y-151462619D01*
X192034286Y-151462619D02*
X192081905Y-151415000D01*
X192081905Y-151415000D02*
X192177143Y-151367380D01*
X192177143Y-151367380D02*
X192415238Y-151367380D01*
X192415238Y-151367380D02*
X192510476Y-151415000D01*
X192510476Y-151415000D02*
X192558095Y-151462619D01*
X192558095Y-151462619D02*
X192605714Y-151557857D01*
X192605714Y-151557857D02*
X192605714Y-151653095D01*
X192605714Y-151653095D02*
X192558095Y-151795952D01*
X192558095Y-151795952D02*
X191986667Y-152367380D01*
X191986667Y-152367380D02*
X192605714Y-152367380D01*
X190393333Y-161512142D02*
X190345714Y-161559761D01*
X190345714Y-161559761D02*
X190202857Y-161607380D01*
X190202857Y-161607380D02*
X190107619Y-161607380D01*
X190107619Y-161607380D02*
X189964762Y-161559761D01*
X189964762Y-161559761D02*
X189869524Y-161464523D01*
X189869524Y-161464523D02*
X189821905Y-161369285D01*
X189821905Y-161369285D02*
X189774286Y-161178809D01*
X189774286Y-161178809D02*
X189774286Y-161035952D01*
X189774286Y-161035952D02*
X189821905Y-160845476D01*
X189821905Y-160845476D02*
X189869524Y-160750238D01*
X189869524Y-160750238D02*
X189964762Y-160655000D01*
X189964762Y-160655000D02*
X190107619Y-160607380D01*
X190107619Y-160607380D02*
X190202857Y-160607380D01*
X190202857Y-160607380D02*
X190345714Y-160655000D01*
X190345714Y-160655000D02*
X190393333Y-160702619D01*
X190726667Y-160607380D02*
X191345714Y-160607380D01*
X191345714Y-160607380D02*
X191012381Y-160988333D01*
X191012381Y-160988333D02*
X191155238Y-160988333D01*
X191155238Y-160988333D02*
X191250476Y-161035952D01*
X191250476Y-161035952D02*
X191298095Y-161083571D01*
X191298095Y-161083571D02*
X191345714Y-161178809D01*
X191345714Y-161178809D02*
X191345714Y-161416904D01*
X191345714Y-161416904D02*
X191298095Y-161512142D01*
X191298095Y-161512142D02*
X191250476Y-161559761D01*
X191250476Y-161559761D02*
X191155238Y-161607380D01*
X191155238Y-161607380D02*
X190869524Y-161607380D01*
X190869524Y-161607380D02*
X190774286Y-161559761D01*
X190774286Y-161559761D02*
X190726667Y-161512142D01*
D11*
X230893186Y-143162290D02*
X232045000Y-142497290D01*
X231558186Y-144314104D02*
X230893186Y-143162290D01*
X232193186Y-145413956D02*
X236033186Y-152065031D01*
X232193186Y-145413956D02*
X234496814Y-144083956D01*
X236033186Y-152065031D02*
X238336814Y-150735031D01*
X234496814Y-144083956D02*
X238336814Y-150735031D01*
X172926814Y-152077711D02*
X171775000Y-151412711D01*
X173591814Y-150925897D02*
X172926814Y-152077711D01*
X174226814Y-149826045D02*
X178066814Y-143174970D01*
X174226814Y-149826045D02*
X171923186Y-148496045D01*
X178066814Y-143174970D02*
X175763186Y-141844970D01*
X171923186Y-148496045D02*
X175763186Y-141844970D01*
X209540000Y-197900000D02*
X209540000Y-199230000D01*
X208210000Y-197900000D02*
X209540000Y-197900000D01*
X206940000Y-197900000D02*
X199260000Y-197900000D01*
X206940000Y-197900000D02*
X206940000Y-200560000D01*
X199260000Y-197900000D02*
X199260000Y-200560000D01*
X206940000Y-200560000D02*
X199260000Y-200560000D01*
X208725256Y-159224744D02*
X210925256Y-163035256D01*
X204914744Y-161424744D02*
X208725256Y-159224744D01*
X210925256Y-163035256D02*
X207114744Y-165235256D01*
X207114744Y-165235256D02*
X204914744Y-161424744D01*
X206620000Y-170530000D02*
X202220000Y-170530000D01*
X206620000Y-166130000D02*
X206620000Y-170530000D01*
X202220000Y-170530000D02*
X202220000Y-166130000D01*
X202220000Y-166130000D02*
X206620000Y-166130000D01*
X192830000Y-156320000D02*
X192830000Y-154520000D01*
X192830000Y-156320000D02*
X192830000Y-157120000D01*
X189710000Y-156320000D02*
X189710000Y-155520000D01*
X189710000Y-156320000D02*
X189710000Y-157120000D01*
D12*
X209990000Y-148500000D02*
X209990000Y-143900000D01*
X209990000Y-148500000D02*
X199590000Y-148500000D01*
X209990000Y-143900000D02*
X199590000Y-143900000D01*
X199590000Y-143900000D02*
X199590000Y-148500000D01*
D13*
X210980000Y-145450000D02*
G75*
G03*
X210980000Y-145450000I-150000J0D01*
G01*
D11*
X188765835Y-173400000D02*
X188534165Y-173400000D01*
X188765835Y-172680000D02*
X188534165Y-172680000D01*
X192250000Y-175780000D02*
X191950000Y-175780000D01*
X191950000Y-175780000D02*
X191950000Y-174465000D01*
X185030000Y-175780000D02*
X185330000Y-175780000D01*
X192250000Y-176080000D02*
X192250000Y-175780000D01*
X185030000Y-176080000D02*
X185030000Y-175780000D01*
X192250000Y-182700000D02*
X192250000Y-183000000D01*
X185030000Y-182700000D02*
X185030000Y-183000000D01*
X192250000Y-183000000D02*
X191950000Y-183000000D01*
X185030000Y-183000000D02*
X185330000Y-183000000D01*
X197914744Y-163035256D02*
X200114744Y-159224744D01*
X201725256Y-165235256D02*
X197914744Y-163035256D01*
X200114744Y-159224744D02*
X203925256Y-161424744D01*
X203925256Y-161424744D02*
X201725256Y-165235256D01*
X226255148Y-171125443D02*
X227355000Y-171760443D01*
X225620148Y-172225295D02*
X226255148Y-171125443D01*
X226543203Y-175252374D02*
X226887077Y-175450910D01*
X226163203Y-175910554D02*
X226507077Y-176109089D01*
X225273203Y-177452079D02*
X225617077Y-177650614D01*
X224893203Y-178110258D02*
X225237077Y-178308794D01*
X224003203Y-179651783D02*
X224347077Y-179850319D01*
X223623203Y-180309963D02*
X223967077Y-180508498D01*
X227871288Y-173086205D02*
X228157077Y-173251205D01*
X227491288Y-173744385D02*
X227777077Y-173909385D01*
X228632077Y-172428481D02*
X223492077Y-181331222D01*
X227332077Y-174680147D02*
X229635704Y-176010147D01*
X226062077Y-176879852D02*
X228365704Y-178209852D01*
X224792077Y-179079556D02*
X227095704Y-180409556D01*
X223492077Y-181331222D02*
X225795704Y-182661222D01*
X230935704Y-173758481D02*
X228632077Y-172428481D01*
X230460704Y-174581205D02*
X235656857Y-177581205D01*
X230430704Y-174633167D02*
X235626857Y-177633167D01*
X230370704Y-174737090D02*
X235566857Y-177737090D01*
X230310704Y-174841013D02*
X235506857Y-177841013D01*
X230250704Y-174944936D02*
X235446857Y-177944936D01*
X230190704Y-175048859D02*
X235386857Y-178048859D01*
X230130704Y-175152782D02*
X235326857Y-178152782D01*
X229190704Y-176780910D02*
X234386857Y-179780910D01*
X227920704Y-178980614D02*
X233116857Y-181980614D01*
X226650704Y-181180319D02*
X231846857Y-184180319D01*
X225795704Y-182661222D02*
X230935704Y-173758481D01*
X235656857Y-177581205D02*
X235276857Y-178239385D01*
X235276857Y-178239385D02*
X230080704Y-175239385D01*
X234386857Y-179780910D02*
X234006857Y-180439089D01*
X234006857Y-180439089D02*
X228810704Y-177439089D01*
X233116857Y-181980614D02*
X232736857Y-182638794D01*
X232736857Y-182638794D02*
X227540704Y-179638794D01*
X231846857Y-184180319D02*
X231466857Y-184838498D01*
X231466857Y-184838498D02*
X226270704Y-181838498D01*
X191935835Y-151200000D02*
X191704165Y-151200000D01*
X191935835Y-150480000D02*
X191704165Y-150480000D01*
X190675835Y-160440000D02*
X190444165Y-160440000D01*
X190675835Y-159720000D02*
X190444165Y-159720000D01*
M02*
