G04 #@! TF.GenerationSoftware,KiCad,Pcbnew,(7.0.0)*
G04 #@! TF.CreationDate,2023-03-16T17:16:22-05:00*
G04 #@! TF.ProjectId,JJL_PCB,4a4a4c5f-5043-4422-9e6b-696361645f70,rev?*
G04 #@! TF.SameCoordinates,Original*
G04 #@! TF.FileFunction,Paste,Bot*
G04 #@! TF.FilePolarity,Positive*
%FSLAX46Y46*%
G04 Gerber Fmt 4.6, Leading zero omitted, Abs format (unit mm)*
G04 Created by KiCad (PCBNEW (7.0.0)) date 2023-03-16 17:16:22*
%MOMM*%
%LPD*%
G01*
G04 APERTURE LIST*
%ADD10R,1.500000X0.900000*%
G04 APERTURE END LIST*
D10*
X174595949Y-168829999D03*
X174595949Y-172129999D03*
X169695949Y-172129999D03*
X169695949Y-168829999D03*
X228520599Y-187579999D03*
X228520599Y-190879999D03*
X223620599Y-190879999D03*
X223620599Y-187579999D03*
X239144049Y-168829999D03*
X239144049Y-172129999D03*
X234244049Y-172129999D03*
X234244049Y-168829999D03*
X206869999Y-150079999D03*
X206869999Y-153379999D03*
X201969999Y-153379999D03*
X201969999Y-150079999D03*
X196044699Y-168829999D03*
X196044699Y-172129999D03*
X191144699Y-172129999D03*
X191144699Y-168829999D03*
X185219399Y-150079999D03*
X185219399Y-153379999D03*
X180319399Y-153379999D03*
X180319399Y-150079999D03*
X206869999Y-187579999D03*
X206869999Y-190879999D03*
X201969999Y-190879999D03*
X201969999Y-187579999D03*
X217695299Y-131329999D03*
X217695299Y-134629999D03*
X212795299Y-134629999D03*
X212795299Y-131329999D03*
X250171199Y-187579999D03*
X250171199Y-190879999D03*
X245271199Y-190879999D03*
X245271199Y-187579999D03*
X228520599Y-150079999D03*
X228520599Y-153379999D03*
X223620599Y-153379999D03*
X223620599Y-150079999D03*
X206869999Y-112579999D03*
X206869999Y-115879999D03*
X201969999Y-115879999D03*
X201969999Y-112579999D03*
X185219399Y-187579999D03*
X185219399Y-190879999D03*
X180319399Y-190879999D03*
X180319399Y-187579999D03*
X163568799Y-187579999D03*
X163568799Y-190879999D03*
X158668799Y-190879999D03*
X158668799Y-187579999D03*
X196044699Y-131329999D03*
X196044699Y-134629999D03*
X191144699Y-134629999D03*
X191144699Y-131329999D03*
X217695299Y-168829999D03*
X217695299Y-172129999D03*
X212795299Y-172129999D03*
X212795299Y-168829999D03*
M02*
