G04 #@! TF.GenerationSoftware,KiCad,Pcbnew,(7.0.0)*
G04 #@! TF.CreationDate,2023-03-16T17:16:22-05:00*
G04 #@! TF.ProjectId,JJL_PCB,4a4a4c5f-5043-4422-9e6b-696361645f70,rev?*
G04 #@! TF.SameCoordinates,Original*
G04 #@! TF.FileFunction,Legend,Bot*
G04 #@! TF.FilePolarity,Positive*
%FSLAX46Y46*%
G04 Gerber Fmt 4.6, Leading zero omitted, Abs format (unit mm)*
G04 Created by KiCad (PCBNEW (7.0.0)) date 2023-03-16 17:16:22*
%MOMM*%
%LPD*%
G01*
G04 APERTURE LIST*
%ADD10C,0.150000*%
%ADD11C,0.120000*%
G04 APERTURE END LIST*
D10*
X172884044Y-167347380D02*
X172884044Y-166347380D01*
X172884044Y-166347380D02*
X172645949Y-166347380D01*
X172645949Y-166347380D02*
X172503092Y-166395000D01*
X172503092Y-166395000D02*
X172407854Y-166490238D01*
X172407854Y-166490238D02*
X172360235Y-166585476D01*
X172360235Y-166585476D02*
X172312616Y-166775952D01*
X172312616Y-166775952D02*
X172312616Y-166918809D01*
X172312616Y-166918809D02*
X172360235Y-167109285D01*
X172360235Y-167109285D02*
X172407854Y-167204523D01*
X172407854Y-167204523D02*
X172503092Y-167299761D01*
X172503092Y-167299761D02*
X172645949Y-167347380D01*
X172645949Y-167347380D02*
X172884044Y-167347380D01*
X171979282Y-166347380D02*
X171312616Y-166347380D01*
X171312616Y-166347380D02*
X171741187Y-167347380D01*
X176010235Y-169247380D02*
X176581663Y-169247380D01*
X176295949Y-169247380D02*
X176295949Y-168247380D01*
X176295949Y-168247380D02*
X176391187Y-168390238D01*
X176391187Y-168390238D02*
X176486425Y-168485476D01*
X176486425Y-168485476D02*
X176581663Y-168533095D01*
X227284885Y-186097380D02*
X227284885Y-185097380D01*
X227284885Y-185097380D02*
X227046790Y-185097380D01*
X227046790Y-185097380D02*
X226903933Y-185145000D01*
X226903933Y-185145000D02*
X226808695Y-185240238D01*
X226808695Y-185240238D02*
X226761076Y-185335476D01*
X226761076Y-185335476D02*
X226713457Y-185525952D01*
X226713457Y-185525952D02*
X226713457Y-185668809D01*
X226713457Y-185668809D02*
X226761076Y-185859285D01*
X226761076Y-185859285D02*
X226808695Y-185954523D01*
X226808695Y-185954523D02*
X226903933Y-186049761D01*
X226903933Y-186049761D02*
X227046790Y-186097380D01*
X227046790Y-186097380D02*
X227284885Y-186097380D01*
X225761076Y-186097380D02*
X226332504Y-186097380D01*
X226046790Y-186097380D02*
X226046790Y-185097380D01*
X226046790Y-185097380D02*
X226142028Y-185240238D01*
X226142028Y-185240238D02*
X226237266Y-185335476D01*
X226237266Y-185335476D02*
X226332504Y-185383095D01*
X225380123Y-185192619D02*
X225332504Y-185145000D01*
X225332504Y-185145000D02*
X225237266Y-185097380D01*
X225237266Y-185097380D02*
X224999171Y-185097380D01*
X224999171Y-185097380D02*
X224903933Y-185145000D01*
X224903933Y-185145000D02*
X224856314Y-185192619D01*
X224856314Y-185192619D02*
X224808695Y-185287857D01*
X224808695Y-185287857D02*
X224808695Y-185383095D01*
X224808695Y-185383095D02*
X224856314Y-185525952D01*
X224856314Y-185525952D02*
X225427742Y-186097380D01*
X225427742Y-186097380D02*
X224808695Y-186097380D01*
X229934885Y-187997380D02*
X230506313Y-187997380D01*
X230220599Y-187997380D02*
X230220599Y-186997380D01*
X230220599Y-186997380D02*
X230315837Y-187140238D01*
X230315837Y-187140238D02*
X230411075Y-187235476D01*
X230411075Y-187235476D02*
X230506313Y-187283095D01*
X237908335Y-167347380D02*
X237908335Y-166347380D01*
X237908335Y-166347380D02*
X237670240Y-166347380D01*
X237670240Y-166347380D02*
X237527383Y-166395000D01*
X237527383Y-166395000D02*
X237432145Y-166490238D01*
X237432145Y-166490238D02*
X237384526Y-166585476D01*
X237384526Y-166585476D02*
X237336907Y-166775952D01*
X237336907Y-166775952D02*
X237336907Y-166918809D01*
X237336907Y-166918809D02*
X237384526Y-167109285D01*
X237384526Y-167109285D02*
X237432145Y-167204523D01*
X237432145Y-167204523D02*
X237527383Y-167299761D01*
X237527383Y-167299761D02*
X237670240Y-167347380D01*
X237670240Y-167347380D02*
X237908335Y-167347380D01*
X236384526Y-167347380D02*
X236955954Y-167347380D01*
X236670240Y-167347380D02*
X236670240Y-166347380D01*
X236670240Y-166347380D02*
X236765478Y-166490238D01*
X236765478Y-166490238D02*
X236860716Y-166585476D01*
X236860716Y-166585476D02*
X236955954Y-166633095D01*
X235765478Y-166347380D02*
X235670240Y-166347380D01*
X235670240Y-166347380D02*
X235575002Y-166395000D01*
X235575002Y-166395000D02*
X235527383Y-166442619D01*
X235527383Y-166442619D02*
X235479764Y-166537857D01*
X235479764Y-166537857D02*
X235432145Y-166728333D01*
X235432145Y-166728333D02*
X235432145Y-166966428D01*
X235432145Y-166966428D02*
X235479764Y-167156904D01*
X235479764Y-167156904D02*
X235527383Y-167252142D01*
X235527383Y-167252142D02*
X235575002Y-167299761D01*
X235575002Y-167299761D02*
X235670240Y-167347380D01*
X235670240Y-167347380D02*
X235765478Y-167347380D01*
X235765478Y-167347380D02*
X235860716Y-167299761D01*
X235860716Y-167299761D02*
X235908335Y-167252142D01*
X235908335Y-167252142D02*
X235955954Y-167156904D01*
X235955954Y-167156904D02*
X236003573Y-166966428D01*
X236003573Y-166966428D02*
X236003573Y-166728333D01*
X236003573Y-166728333D02*
X235955954Y-166537857D01*
X235955954Y-166537857D02*
X235908335Y-166442619D01*
X235908335Y-166442619D02*
X235860716Y-166395000D01*
X235860716Y-166395000D02*
X235765478Y-166347380D01*
X240558335Y-169247380D02*
X241129763Y-169247380D01*
X240844049Y-169247380D02*
X240844049Y-168247380D01*
X240844049Y-168247380D02*
X240939287Y-168390238D01*
X240939287Y-168390238D02*
X241034525Y-168485476D01*
X241034525Y-168485476D02*
X241129763Y-168533095D01*
X205158094Y-148597380D02*
X205158094Y-147597380D01*
X205158094Y-147597380D02*
X204919999Y-147597380D01*
X204919999Y-147597380D02*
X204777142Y-147645000D01*
X204777142Y-147645000D02*
X204681904Y-147740238D01*
X204681904Y-147740238D02*
X204634285Y-147835476D01*
X204634285Y-147835476D02*
X204586666Y-148025952D01*
X204586666Y-148025952D02*
X204586666Y-148168809D01*
X204586666Y-148168809D02*
X204634285Y-148359285D01*
X204634285Y-148359285D02*
X204681904Y-148454523D01*
X204681904Y-148454523D02*
X204777142Y-148549761D01*
X204777142Y-148549761D02*
X204919999Y-148597380D01*
X204919999Y-148597380D02*
X205158094Y-148597380D01*
X203681904Y-147597380D02*
X204158094Y-147597380D01*
X204158094Y-147597380D02*
X204205713Y-148073571D01*
X204205713Y-148073571D02*
X204158094Y-148025952D01*
X204158094Y-148025952D02*
X204062856Y-147978333D01*
X204062856Y-147978333D02*
X203824761Y-147978333D01*
X203824761Y-147978333D02*
X203729523Y-148025952D01*
X203729523Y-148025952D02*
X203681904Y-148073571D01*
X203681904Y-148073571D02*
X203634285Y-148168809D01*
X203634285Y-148168809D02*
X203634285Y-148406904D01*
X203634285Y-148406904D02*
X203681904Y-148502142D01*
X203681904Y-148502142D02*
X203729523Y-148549761D01*
X203729523Y-148549761D02*
X203824761Y-148597380D01*
X203824761Y-148597380D02*
X204062856Y-148597380D01*
X204062856Y-148597380D02*
X204158094Y-148549761D01*
X204158094Y-148549761D02*
X204205713Y-148502142D01*
X208284285Y-150497380D02*
X208855713Y-150497380D01*
X208569999Y-150497380D02*
X208569999Y-149497380D01*
X208569999Y-149497380D02*
X208665237Y-149640238D01*
X208665237Y-149640238D02*
X208760475Y-149735476D01*
X208760475Y-149735476D02*
X208855713Y-149783095D01*
X194332794Y-167347380D02*
X194332794Y-166347380D01*
X194332794Y-166347380D02*
X194094699Y-166347380D01*
X194094699Y-166347380D02*
X193951842Y-166395000D01*
X193951842Y-166395000D02*
X193856604Y-166490238D01*
X193856604Y-166490238D02*
X193808985Y-166585476D01*
X193808985Y-166585476D02*
X193761366Y-166775952D01*
X193761366Y-166775952D02*
X193761366Y-166918809D01*
X193761366Y-166918809D02*
X193808985Y-167109285D01*
X193808985Y-167109285D02*
X193856604Y-167204523D01*
X193856604Y-167204523D02*
X193951842Y-167299761D01*
X193951842Y-167299761D02*
X194094699Y-167347380D01*
X194094699Y-167347380D02*
X194332794Y-167347380D01*
X193189937Y-166775952D02*
X193285175Y-166728333D01*
X193285175Y-166728333D02*
X193332794Y-166680714D01*
X193332794Y-166680714D02*
X193380413Y-166585476D01*
X193380413Y-166585476D02*
X193380413Y-166537857D01*
X193380413Y-166537857D02*
X193332794Y-166442619D01*
X193332794Y-166442619D02*
X193285175Y-166395000D01*
X193285175Y-166395000D02*
X193189937Y-166347380D01*
X193189937Y-166347380D02*
X192999461Y-166347380D01*
X192999461Y-166347380D02*
X192904223Y-166395000D01*
X192904223Y-166395000D02*
X192856604Y-166442619D01*
X192856604Y-166442619D02*
X192808985Y-166537857D01*
X192808985Y-166537857D02*
X192808985Y-166585476D01*
X192808985Y-166585476D02*
X192856604Y-166680714D01*
X192856604Y-166680714D02*
X192904223Y-166728333D01*
X192904223Y-166728333D02*
X192999461Y-166775952D01*
X192999461Y-166775952D02*
X193189937Y-166775952D01*
X193189937Y-166775952D02*
X193285175Y-166823571D01*
X193285175Y-166823571D02*
X193332794Y-166871190D01*
X193332794Y-166871190D02*
X193380413Y-166966428D01*
X193380413Y-166966428D02*
X193380413Y-167156904D01*
X193380413Y-167156904D02*
X193332794Y-167252142D01*
X193332794Y-167252142D02*
X193285175Y-167299761D01*
X193285175Y-167299761D02*
X193189937Y-167347380D01*
X193189937Y-167347380D02*
X192999461Y-167347380D01*
X192999461Y-167347380D02*
X192904223Y-167299761D01*
X192904223Y-167299761D02*
X192856604Y-167252142D01*
X192856604Y-167252142D02*
X192808985Y-167156904D01*
X192808985Y-167156904D02*
X192808985Y-166966428D01*
X192808985Y-166966428D02*
X192856604Y-166871190D01*
X192856604Y-166871190D02*
X192904223Y-166823571D01*
X192904223Y-166823571D02*
X192999461Y-166775952D01*
X197458985Y-169247380D02*
X198030413Y-169247380D01*
X197744699Y-169247380D02*
X197744699Y-168247380D01*
X197744699Y-168247380D02*
X197839937Y-168390238D01*
X197839937Y-168390238D02*
X197935175Y-168485476D01*
X197935175Y-168485476D02*
X198030413Y-168533095D01*
X183507494Y-148597380D02*
X183507494Y-147597380D01*
X183507494Y-147597380D02*
X183269399Y-147597380D01*
X183269399Y-147597380D02*
X183126542Y-147645000D01*
X183126542Y-147645000D02*
X183031304Y-147740238D01*
X183031304Y-147740238D02*
X182983685Y-147835476D01*
X182983685Y-147835476D02*
X182936066Y-148025952D01*
X182936066Y-148025952D02*
X182936066Y-148168809D01*
X182936066Y-148168809D02*
X182983685Y-148359285D01*
X182983685Y-148359285D02*
X183031304Y-148454523D01*
X183031304Y-148454523D02*
X183126542Y-148549761D01*
X183126542Y-148549761D02*
X183269399Y-148597380D01*
X183269399Y-148597380D02*
X183507494Y-148597380D01*
X182078923Y-147597380D02*
X182269399Y-147597380D01*
X182269399Y-147597380D02*
X182364637Y-147645000D01*
X182364637Y-147645000D02*
X182412256Y-147692619D01*
X182412256Y-147692619D02*
X182507494Y-147835476D01*
X182507494Y-147835476D02*
X182555113Y-148025952D01*
X182555113Y-148025952D02*
X182555113Y-148406904D01*
X182555113Y-148406904D02*
X182507494Y-148502142D01*
X182507494Y-148502142D02*
X182459875Y-148549761D01*
X182459875Y-148549761D02*
X182364637Y-148597380D01*
X182364637Y-148597380D02*
X182174161Y-148597380D01*
X182174161Y-148597380D02*
X182078923Y-148549761D01*
X182078923Y-148549761D02*
X182031304Y-148502142D01*
X182031304Y-148502142D02*
X181983685Y-148406904D01*
X181983685Y-148406904D02*
X181983685Y-148168809D01*
X181983685Y-148168809D02*
X182031304Y-148073571D01*
X182031304Y-148073571D02*
X182078923Y-148025952D01*
X182078923Y-148025952D02*
X182174161Y-147978333D01*
X182174161Y-147978333D02*
X182364637Y-147978333D01*
X182364637Y-147978333D02*
X182459875Y-148025952D01*
X182459875Y-148025952D02*
X182507494Y-148073571D01*
X182507494Y-148073571D02*
X182555113Y-148168809D01*
X186633685Y-150497380D02*
X187205113Y-150497380D01*
X186919399Y-150497380D02*
X186919399Y-149497380D01*
X186919399Y-149497380D02*
X187014637Y-149640238D01*
X187014637Y-149640238D02*
X187109875Y-149735476D01*
X187109875Y-149735476D02*
X187205113Y-149783095D01*
X205634285Y-186097380D02*
X205634285Y-185097380D01*
X205634285Y-185097380D02*
X205396190Y-185097380D01*
X205396190Y-185097380D02*
X205253333Y-185145000D01*
X205253333Y-185145000D02*
X205158095Y-185240238D01*
X205158095Y-185240238D02*
X205110476Y-185335476D01*
X205110476Y-185335476D02*
X205062857Y-185525952D01*
X205062857Y-185525952D02*
X205062857Y-185668809D01*
X205062857Y-185668809D02*
X205110476Y-185859285D01*
X205110476Y-185859285D02*
X205158095Y-185954523D01*
X205158095Y-185954523D02*
X205253333Y-186049761D01*
X205253333Y-186049761D02*
X205396190Y-186097380D01*
X205396190Y-186097380D02*
X205634285Y-186097380D01*
X204110476Y-186097380D02*
X204681904Y-186097380D01*
X204396190Y-186097380D02*
X204396190Y-185097380D01*
X204396190Y-185097380D02*
X204491428Y-185240238D01*
X204491428Y-185240238D02*
X204586666Y-185335476D01*
X204586666Y-185335476D02*
X204681904Y-185383095D01*
X203777142Y-185097380D02*
X203158095Y-185097380D01*
X203158095Y-185097380D02*
X203491428Y-185478333D01*
X203491428Y-185478333D02*
X203348571Y-185478333D01*
X203348571Y-185478333D02*
X203253333Y-185525952D01*
X203253333Y-185525952D02*
X203205714Y-185573571D01*
X203205714Y-185573571D02*
X203158095Y-185668809D01*
X203158095Y-185668809D02*
X203158095Y-185906904D01*
X203158095Y-185906904D02*
X203205714Y-186002142D01*
X203205714Y-186002142D02*
X203253333Y-186049761D01*
X203253333Y-186049761D02*
X203348571Y-186097380D01*
X203348571Y-186097380D02*
X203634285Y-186097380D01*
X203634285Y-186097380D02*
X203729523Y-186049761D01*
X203729523Y-186049761D02*
X203777142Y-186002142D01*
X208284285Y-187997380D02*
X208855713Y-187997380D01*
X208569999Y-187997380D02*
X208569999Y-186997380D01*
X208569999Y-186997380D02*
X208665237Y-187140238D01*
X208665237Y-187140238D02*
X208760475Y-187235476D01*
X208760475Y-187235476D02*
X208855713Y-187283095D01*
X215983394Y-129847380D02*
X215983394Y-128847380D01*
X215983394Y-128847380D02*
X215745299Y-128847380D01*
X215745299Y-128847380D02*
X215602442Y-128895000D01*
X215602442Y-128895000D02*
X215507204Y-128990238D01*
X215507204Y-128990238D02*
X215459585Y-129085476D01*
X215459585Y-129085476D02*
X215411966Y-129275952D01*
X215411966Y-129275952D02*
X215411966Y-129418809D01*
X215411966Y-129418809D02*
X215459585Y-129609285D01*
X215459585Y-129609285D02*
X215507204Y-129704523D01*
X215507204Y-129704523D02*
X215602442Y-129799761D01*
X215602442Y-129799761D02*
X215745299Y-129847380D01*
X215745299Y-129847380D02*
X215983394Y-129847380D01*
X215078632Y-128847380D02*
X214459585Y-128847380D01*
X214459585Y-128847380D02*
X214792918Y-129228333D01*
X214792918Y-129228333D02*
X214650061Y-129228333D01*
X214650061Y-129228333D02*
X214554823Y-129275952D01*
X214554823Y-129275952D02*
X214507204Y-129323571D01*
X214507204Y-129323571D02*
X214459585Y-129418809D01*
X214459585Y-129418809D02*
X214459585Y-129656904D01*
X214459585Y-129656904D02*
X214507204Y-129752142D01*
X214507204Y-129752142D02*
X214554823Y-129799761D01*
X214554823Y-129799761D02*
X214650061Y-129847380D01*
X214650061Y-129847380D02*
X214935775Y-129847380D01*
X214935775Y-129847380D02*
X215031013Y-129799761D01*
X215031013Y-129799761D02*
X215078632Y-129752142D01*
X219109585Y-131747380D02*
X219681013Y-131747380D01*
X219395299Y-131747380D02*
X219395299Y-130747380D01*
X219395299Y-130747380D02*
X219490537Y-130890238D01*
X219490537Y-130890238D02*
X219585775Y-130985476D01*
X219585775Y-130985476D02*
X219681013Y-131033095D01*
X248935485Y-186097380D02*
X248935485Y-185097380D01*
X248935485Y-185097380D02*
X248697390Y-185097380D01*
X248697390Y-185097380D02*
X248554533Y-185145000D01*
X248554533Y-185145000D02*
X248459295Y-185240238D01*
X248459295Y-185240238D02*
X248411676Y-185335476D01*
X248411676Y-185335476D02*
X248364057Y-185525952D01*
X248364057Y-185525952D02*
X248364057Y-185668809D01*
X248364057Y-185668809D02*
X248411676Y-185859285D01*
X248411676Y-185859285D02*
X248459295Y-185954523D01*
X248459295Y-185954523D02*
X248554533Y-186049761D01*
X248554533Y-186049761D02*
X248697390Y-186097380D01*
X248697390Y-186097380D02*
X248935485Y-186097380D01*
X247411676Y-186097380D02*
X247983104Y-186097380D01*
X247697390Y-186097380D02*
X247697390Y-185097380D01*
X247697390Y-185097380D02*
X247792628Y-185240238D01*
X247792628Y-185240238D02*
X247887866Y-185335476D01*
X247887866Y-185335476D02*
X247983104Y-185383095D01*
X246459295Y-186097380D02*
X247030723Y-186097380D01*
X246745009Y-186097380D02*
X246745009Y-185097380D01*
X246745009Y-185097380D02*
X246840247Y-185240238D01*
X246840247Y-185240238D02*
X246935485Y-185335476D01*
X246935485Y-185335476D02*
X247030723Y-185383095D01*
X251585485Y-187997380D02*
X252156913Y-187997380D01*
X251871199Y-187997380D02*
X251871199Y-186997380D01*
X251871199Y-186997380D02*
X251966437Y-187140238D01*
X251966437Y-187140238D02*
X252061675Y-187235476D01*
X252061675Y-187235476D02*
X252156913Y-187283095D01*
X226808694Y-148597380D02*
X226808694Y-147597380D01*
X226808694Y-147597380D02*
X226570599Y-147597380D01*
X226570599Y-147597380D02*
X226427742Y-147645000D01*
X226427742Y-147645000D02*
X226332504Y-147740238D01*
X226332504Y-147740238D02*
X226284885Y-147835476D01*
X226284885Y-147835476D02*
X226237266Y-148025952D01*
X226237266Y-148025952D02*
X226237266Y-148168809D01*
X226237266Y-148168809D02*
X226284885Y-148359285D01*
X226284885Y-148359285D02*
X226332504Y-148454523D01*
X226332504Y-148454523D02*
X226427742Y-148549761D01*
X226427742Y-148549761D02*
X226570599Y-148597380D01*
X226570599Y-148597380D02*
X226808694Y-148597380D01*
X225380123Y-147930714D02*
X225380123Y-148597380D01*
X225618218Y-147549761D02*
X225856313Y-148264047D01*
X225856313Y-148264047D02*
X225237266Y-148264047D01*
X229934885Y-150497380D02*
X230506313Y-150497380D01*
X230220599Y-150497380D02*
X230220599Y-149497380D01*
X230220599Y-149497380D02*
X230315837Y-149640238D01*
X230315837Y-149640238D02*
X230411075Y-149735476D01*
X230411075Y-149735476D02*
X230506313Y-149783095D01*
X205158094Y-111097380D02*
X205158094Y-110097380D01*
X205158094Y-110097380D02*
X204919999Y-110097380D01*
X204919999Y-110097380D02*
X204777142Y-110145000D01*
X204777142Y-110145000D02*
X204681904Y-110240238D01*
X204681904Y-110240238D02*
X204634285Y-110335476D01*
X204634285Y-110335476D02*
X204586666Y-110525952D01*
X204586666Y-110525952D02*
X204586666Y-110668809D01*
X204586666Y-110668809D02*
X204634285Y-110859285D01*
X204634285Y-110859285D02*
X204681904Y-110954523D01*
X204681904Y-110954523D02*
X204777142Y-111049761D01*
X204777142Y-111049761D02*
X204919999Y-111097380D01*
X204919999Y-111097380D02*
X205158094Y-111097380D01*
X203634285Y-111097380D02*
X204205713Y-111097380D01*
X203919999Y-111097380D02*
X203919999Y-110097380D01*
X203919999Y-110097380D02*
X204015237Y-110240238D01*
X204015237Y-110240238D02*
X204110475Y-110335476D01*
X204110475Y-110335476D02*
X204205713Y-110383095D01*
X208284285Y-112997380D02*
X208855713Y-112997380D01*
X208569999Y-112997380D02*
X208569999Y-111997380D01*
X208569999Y-111997380D02*
X208665237Y-112140238D01*
X208665237Y-112140238D02*
X208760475Y-112235476D01*
X208760475Y-112235476D02*
X208855713Y-112283095D01*
X183983685Y-186097380D02*
X183983685Y-185097380D01*
X183983685Y-185097380D02*
X183745590Y-185097380D01*
X183745590Y-185097380D02*
X183602733Y-185145000D01*
X183602733Y-185145000D02*
X183507495Y-185240238D01*
X183507495Y-185240238D02*
X183459876Y-185335476D01*
X183459876Y-185335476D02*
X183412257Y-185525952D01*
X183412257Y-185525952D02*
X183412257Y-185668809D01*
X183412257Y-185668809D02*
X183459876Y-185859285D01*
X183459876Y-185859285D02*
X183507495Y-185954523D01*
X183507495Y-185954523D02*
X183602733Y-186049761D01*
X183602733Y-186049761D02*
X183745590Y-186097380D01*
X183745590Y-186097380D02*
X183983685Y-186097380D01*
X182459876Y-186097380D02*
X183031304Y-186097380D01*
X182745590Y-186097380D02*
X182745590Y-185097380D01*
X182745590Y-185097380D02*
X182840828Y-185240238D01*
X182840828Y-185240238D02*
X182936066Y-185335476D01*
X182936066Y-185335476D02*
X183031304Y-185383095D01*
X181602733Y-185430714D02*
X181602733Y-186097380D01*
X181840828Y-185049761D02*
X182078923Y-185764047D01*
X182078923Y-185764047D02*
X181459876Y-185764047D01*
X186633685Y-187997380D02*
X187205113Y-187997380D01*
X186919399Y-187997380D02*
X186919399Y-186997380D01*
X186919399Y-186997380D02*
X187014637Y-187140238D01*
X187014637Y-187140238D02*
X187109875Y-187235476D01*
X187109875Y-187235476D02*
X187205113Y-187283095D01*
X162333085Y-186097380D02*
X162333085Y-185097380D01*
X162333085Y-185097380D02*
X162094990Y-185097380D01*
X162094990Y-185097380D02*
X161952133Y-185145000D01*
X161952133Y-185145000D02*
X161856895Y-185240238D01*
X161856895Y-185240238D02*
X161809276Y-185335476D01*
X161809276Y-185335476D02*
X161761657Y-185525952D01*
X161761657Y-185525952D02*
X161761657Y-185668809D01*
X161761657Y-185668809D02*
X161809276Y-185859285D01*
X161809276Y-185859285D02*
X161856895Y-185954523D01*
X161856895Y-185954523D02*
X161952133Y-186049761D01*
X161952133Y-186049761D02*
X162094990Y-186097380D01*
X162094990Y-186097380D02*
X162333085Y-186097380D01*
X160809276Y-186097380D02*
X161380704Y-186097380D01*
X161094990Y-186097380D02*
X161094990Y-185097380D01*
X161094990Y-185097380D02*
X161190228Y-185240238D01*
X161190228Y-185240238D02*
X161285466Y-185335476D01*
X161285466Y-185335476D02*
X161380704Y-185383095D01*
X159904514Y-185097380D02*
X160380704Y-185097380D01*
X160380704Y-185097380D02*
X160428323Y-185573571D01*
X160428323Y-185573571D02*
X160380704Y-185525952D01*
X160380704Y-185525952D02*
X160285466Y-185478333D01*
X160285466Y-185478333D02*
X160047371Y-185478333D01*
X160047371Y-185478333D02*
X159952133Y-185525952D01*
X159952133Y-185525952D02*
X159904514Y-185573571D01*
X159904514Y-185573571D02*
X159856895Y-185668809D01*
X159856895Y-185668809D02*
X159856895Y-185906904D01*
X159856895Y-185906904D02*
X159904514Y-186002142D01*
X159904514Y-186002142D02*
X159952133Y-186049761D01*
X159952133Y-186049761D02*
X160047371Y-186097380D01*
X160047371Y-186097380D02*
X160285466Y-186097380D01*
X160285466Y-186097380D02*
X160380704Y-186049761D01*
X160380704Y-186049761D02*
X160428323Y-186002142D01*
X164983085Y-187997380D02*
X165554513Y-187997380D01*
X165268799Y-187997380D02*
X165268799Y-186997380D01*
X165268799Y-186997380D02*
X165364037Y-187140238D01*
X165364037Y-187140238D02*
X165459275Y-187235476D01*
X165459275Y-187235476D02*
X165554513Y-187283095D01*
X194332794Y-129847380D02*
X194332794Y-128847380D01*
X194332794Y-128847380D02*
X194094699Y-128847380D01*
X194094699Y-128847380D02*
X193951842Y-128895000D01*
X193951842Y-128895000D02*
X193856604Y-128990238D01*
X193856604Y-128990238D02*
X193808985Y-129085476D01*
X193808985Y-129085476D02*
X193761366Y-129275952D01*
X193761366Y-129275952D02*
X193761366Y-129418809D01*
X193761366Y-129418809D02*
X193808985Y-129609285D01*
X193808985Y-129609285D02*
X193856604Y-129704523D01*
X193856604Y-129704523D02*
X193951842Y-129799761D01*
X193951842Y-129799761D02*
X194094699Y-129847380D01*
X194094699Y-129847380D02*
X194332794Y-129847380D01*
X193380413Y-128942619D02*
X193332794Y-128895000D01*
X193332794Y-128895000D02*
X193237556Y-128847380D01*
X193237556Y-128847380D02*
X192999461Y-128847380D01*
X192999461Y-128847380D02*
X192904223Y-128895000D01*
X192904223Y-128895000D02*
X192856604Y-128942619D01*
X192856604Y-128942619D02*
X192808985Y-129037857D01*
X192808985Y-129037857D02*
X192808985Y-129133095D01*
X192808985Y-129133095D02*
X192856604Y-129275952D01*
X192856604Y-129275952D02*
X193428032Y-129847380D01*
X193428032Y-129847380D02*
X192808985Y-129847380D01*
X197458985Y-131747380D02*
X198030413Y-131747380D01*
X197744699Y-131747380D02*
X197744699Y-130747380D01*
X197744699Y-130747380D02*
X197839937Y-130890238D01*
X197839937Y-130890238D02*
X197935175Y-130985476D01*
X197935175Y-130985476D02*
X198030413Y-131033095D01*
X215983394Y-167347380D02*
X215983394Y-166347380D01*
X215983394Y-166347380D02*
X215745299Y-166347380D01*
X215745299Y-166347380D02*
X215602442Y-166395000D01*
X215602442Y-166395000D02*
X215507204Y-166490238D01*
X215507204Y-166490238D02*
X215459585Y-166585476D01*
X215459585Y-166585476D02*
X215411966Y-166775952D01*
X215411966Y-166775952D02*
X215411966Y-166918809D01*
X215411966Y-166918809D02*
X215459585Y-167109285D01*
X215459585Y-167109285D02*
X215507204Y-167204523D01*
X215507204Y-167204523D02*
X215602442Y-167299761D01*
X215602442Y-167299761D02*
X215745299Y-167347380D01*
X215745299Y-167347380D02*
X215983394Y-167347380D01*
X214935775Y-167347380D02*
X214745299Y-167347380D01*
X214745299Y-167347380D02*
X214650061Y-167299761D01*
X214650061Y-167299761D02*
X214602442Y-167252142D01*
X214602442Y-167252142D02*
X214507204Y-167109285D01*
X214507204Y-167109285D02*
X214459585Y-166918809D01*
X214459585Y-166918809D02*
X214459585Y-166537857D01*
X214459585Y-166537857D02*
X214507204Y-166442619D01*
X214507204Y-166442619D02*
X214554823Y-166395000D01*
X214554823Y-166395000D02*
X214650061Y-166347380D01*
X214650061Y-166347380D02*
X214840537Y-166347380D01*
X214840537Y-166347380D02*
X214935775Y-166395000D01*
X214935775Y-166395000D02*
X214983394Y-166442619D01*
X214983394Y-166442619D02*
X215031013Y-166537857D01*
X215031013Y-166537857D02*
X215031013Y-166775952D01*
X215031013Y-166775952D02*
X214983394Y-166871190D01*
X214983394Y-166871190D02*
X214935775Y-166918809D01*
X214935775Y-166918809D02*
X214840537Y-166966428D01*
X214840537Y-166966428D02*
X214650061Y-166966428D01*
X214650061Y-166966428D02*
X214554823Y-166918809D01*
X214554823Y-166918809D02*
X214507204Y-166871190D01*
X214507204Y-166871190D02*
X214459585Y-166775952D01*
X219109585Y-169247380D02*
X219681013Y-169247380D01*
X219395299Y-169247380D02*
X219395299Y-168247380D01*
X219395299Y-168247380D02*
X219490537Y-168390238D01*
X219490537Y-168390238D02*
X219585775Y-168485476D01*
X219585775Y-168485476D02*
X219681013Y-168533095D01*
D11*
X175795950Y-173230000D02*
X168495950Y-173230000D01*
X175795950Y-167730000D02*
X168495950Y-167730000D01*
X168495950Y-173230000D02*
X168495950Y-172080000D01*
X229720600Y-191980000D02*
X222420600Y-191980000D01*
X229720600Y-186480000D02*
X222420600Y-186480000D01*
X222420600Y-191980000D02*
X222420600Y-190830000D01*
X240344050Y-173230000D02*
X233044050Y-173230000D01*
X240344050Y-167730000D02*
X233044050Y-167730000D01*
X233044050Y-173230000D02*
X233044050Y-172080000D01*
X208070000Y-154480000D02*
X200770000Y-154480000D01*
X208070000Y-148980000D02*
X200770000Y-148980000D01*
X200770000Y-154480000D02*
X200770000Y-153330000D01*
X197244700Y-173230000D02*
X189944700Y-173230000D01*
X197244700Y-167730000D02*
X189944700Y-167730000D01*
X189944700Y-173230000D02*
X189944700Y-172080000D01*
X186419400Y-154480000D02*
X179119400Y-154480000D01*
X186419400Y-148980000D02*
X179119400Y-148980000D01*
X179119400Y-154480000D02*
X179119400Y-153330000D01*
X208070000Y-191980000D02*
X200770000Y-191980000D01*
X208070000Y-186480000D02*
X200770000Y-186480000D01*
X200770000Y-191980000D02*
X200770000Y-190830000D01*
X218895300Y-135730000D02*
X211595300Y-135730000D01*
X218895300Y-130230000D02*
X211595300Y-130230000D01*
X211595300Y-135730000D02*
X211595300Y-134580000D01*
X251371200Y-191980000D02*
X244071200Y-191980000D01*
X251371200Y-186480000D02*
X244071200Y-186480000D01*
X244071200Y-191980000D02*
X244071200Y-190830000D01*
X229720600Y-154480000D02*
X222420600Y-154480000D01*
X229720600Y-148980000D02*
X222420600Y-148980000D01*
X222420600Y-154480000D02*
X222420600Y-153330000D01*
X208070000Y-116980000D02*
X200770000Y-116980000D01*
X208070000Y-111480000D02*
X200770000Y-111480000D01*
X200770000Y-116980000D02*
X200770000Y-115830000D01*
X186419400Y-191980000D02*
X179119400Y-191980000D01*
X186419400Y-186480000D02*
X179119400Y-186480000D01*
X179119400Y-191980000D02*
X179119400Y-190830000D01*
X164768800Y-191980000D02*
X157468800Y-191980000D01*
X164768800Y-186480000D02*
X157468800Y-186480000D01*
X157468800Y-191980000D02*
X157468800Y-190830000D01*
X197244700Y-135730000D02*
X189944700Y-135730000D01*
X197244700Y-130230000D02*
X189944700Y-130230000D01*
X189944700Y-135730000D02*
X189944700Y-134580000D01*
X218895300Y-173230000D02*
X211595300Y-173230000D01*
X218895300Y-167730000D02*
X211595300Y-167730000D01*
X211595300Y-173230000D02*
X211595300Y-172080000D01*
M02*
