G04 #@! TF.GenerationSoftware,KiCad,Pcbnew,(7.0.0)*
G04 #@! TF.CreationDate,2023-03-16T17:16:22-05:00*
G04 #@! TF.ProjectId,JJL_PCB,4a4a4c5f-5043-4422-9e6b-696361645f70,rev?*
G04 #@! TF.SameCoordinates,Original*
G04 #@! TF.FileFunction,Paste,Top*
G04 #@! TF.FilePolarity,Positive*
%FSLAX46Y46*%
G04 Gerber Fmt 4.6, Leading zero omitted, Abs format (unit mm)*
G04 Created by KiCad (PCBNEW (7.0.0)) date 2023-03-16 17:16:22*
%MOMM*%
%LPD*%
G01*
G04 APERTURE LIST*
G04 Aperture macros list*
%AMRoundRect*
0 Rectangle with rounded corners*
0 $1 Rounding radius*
0 $2 $3 $4 $5 $6 $7 $8 $9 X,Y pos of 4 corners*
0 Add a 4 corners polygon primitive as box body*
4,1,4,$2,$3,$4,$5,$6,$7,$8,$9,$2,$3,0*
0 Add four circle primitives for the rounded corners*
1,1,$1+$1,$2,$3*
1,1,$1+$1,$4,$5*
1,1,$1+$1,$6,$7*
1,1,$1+$1,$8,$9*
0 Add four rect primitives between the rounded corners*
20,1,$1+$1,$2,$3,$4,$5,0*
20,1,$1+$1,$4,$5,$6,$7,0*
20,1,$1+$1,$6,$7,$8,$9,0*
20,1,$1+$1,$8,$9,$2,$3,0*%
G04 Aperture macros list end*
%ADD10RoundRect,0.150000X-0.150000X0.512500X-0.150000X-0.512500X0.150000X-0.512500X0.150000X0.512500X0*%
%ADD11RoundRect,0.155000X0.212500X0.155000X-0.212500X0.155000X-0.212500X-0.155000X0.212500X-0.155000X0*%
%ADD12RoundRect,0.125000X-0.125000X0.625000X-0.125000X-0.625000X0.125000X-0.625000X0.125000X0.625000X0*%
%ADD13RoundRect,0.125000X-0.625000X0.125000X-0.625000X-0.125000X0.625000X-0.125000X0.625000X0.125000X0*%
G04 APERTURE END LIST*
D10*
X192220000Y-155182500D03*
X191270000Y-155182500D03*
X190320000Y-155182500D03*
X190320000Y-157457500D03*
X192220000Y-157457500D03*
D11*
X189217500Y-173040000D03*
X188082500Y-173040000D03*
D12*
X191440000Y-175215000D03*
X190640000Y-175215000D03*
X189840000Y-175215000D03*
X189040000Y-175215000D03*
X188240000Y-175215000D03*
X187440000Y-175215000D03*
X186640000Y-175215000D03*
X185840000Y-175215000D03*
D13*
X184465000Y-176590000D03*
X184465000Y-177390000D03*
X184465000Y-178190000D03*
X184465000Y-178990000D03*
X184465000Y-179790000D03*
X184465000Y-180590000D03*
X184465000Y-181390000D03*
X184465000Y-182190000D03*
D12*
X185840000Y-183565000D03*
X186640000Y-183565000D03*
X187440000Y-183565000D03*
X188240000Y-183565000D03*
X189040000Y-183565000D03*
X189840000Y-183565000D03*
X190640000Y-183565000D03*
X191440000Y-183565000D03*
D13*
X192815000Y-182190000D03*
X192815000Y-181390000D03*
X192815000Y-180590000D03*
X192815000Y-179790000D03*
X192815000Y-178990000D03*
X192815000Y-178190000D03*
X192815000Y-177390000D03*
X192815000Y-176590000D03*
D11*
X192387500Y-150840000D03*
X191252500Y-150840000D03*
X191127500Y-160080000D03*
X189992500Y-160080000D03*
M02*
