G04 #@! TF.GenerationSoftware,KiCad,Pcbnew,(7.0.0)*
G04 #@! TF.CreationDate,2023-03-16T17:16:22-05:00*
G04 #@! TF.ProjectId,JJL_PCB,4a4a4c5f-5043-4422-9e6b-696361645f70,rev?*
G04 #@! TF.SameCoordinates,Original*
G04 #@! TF.FileFunction,Soldermask,Top*
G04 #@! TF.FilePolarity,Negative*
%FSLAX46Y46*%
G04 Gerber Fmt 4.6, Leading zero omitted, Abs format (unit mm)*
G04 Created by KiCad (PCBNEW (7.0.0)) date 2023-03-16 17:16:22*
%MOMM*%
%LPD*%
G01*
G04 APERTURE LIST*
G04 Aperture macros list*
%AMRoundRect*
0 Rectangle with rounded corners*
0 $1 Rounding radius*
0 $2 $3 $4 $5 $6 $7 $8 $9 X,Y pos of 4 corners*
0 Add a 4 corners polygon primitive as box body*
4,1,4,$2,$3,$4,$5,$6,$7,$8,$9,$2,$3,0*
0 Add four circle primitives for the rounded corners*
1,1,$1+$1,$2,$3*
1,1,$1+$1,$4,$5*
1,1,$1+$1,$6,$7*
1,1,$1+$1,$8,$9*
0 Add four rect primitives between the rounded corners*
20,1,$1+$1,$2,$3,$4,$5,0*
20,1,$1+$1,$4,$5,$6,$7,0*
20,1,$1+$1,$6,$7,$8,$9,0*
20,1,$1+$1,$8,$9,$2,$3,0*%
%AMHorizOval*
0 Thick line with rounded ends*
0 $1 width*
0 $2 $3 position (X,Y) of the first rounded end (center of the circle)*
0 $4 $5 position (X,Y) of the second rounded end (center of the circle)*
0 Add line between two ends*
20,1,$1,$2,$3,$4,$5,0*
0 Add two circle primitives to create the rounded ends*
1,1,$1,$2,$3*
1,1,$1,$4,$5*%
%AMRotRect*
0 Rectangle, with rotation*
0 The origin of the aperture is its center*
0 $1 length*
0 $2 width*
0 $3 Rotation angle, in degrees counterclockwise*
0 Add horizontal line*
21,1,$1,$2,0,0,$3*%
G04 Aperture macros list end*
%ADD10RotRect,1.700000X1.700000X30.000000*%
%ADD11HorizOval,1.700000X0.000000X0.000000X0.000000X0.000000X0*%
%ADD12RotRect,1.700000X1.700000X150.000000*%
%ADD13HorizOval,1.700000X0.000000X0.000000X0.000000X0.000000X0*%
%ADD14R,1.700000X1.700000*%
%ADD15O,1.700000X1.700000*%
%ADD16RotRect,4.000000X4.000000X300.000000*%
%ADD17R,4.000000X4.000000*%
%ADD18RoundRect,0.150000X-0.150000X0.512500X-0.150000X-0.512500X0.150000X-0.512500X0.150000X0.512500X0*%
%ADD19R,1.910000X1.910000*%
%ADD20C,1.910000*%
%ADD21RoundRect,0.155000X0.212500X0.155000X-0.212500X0.155000X-0.212500X-0.155000X0.212500X-0.155000X0*%
%ADD22RoundRect,0.125000X-0.125000X0.625000X-0.125000X-0.625000X0.125000X-0.625000X0.125000X0.625000X0*%
%ADD23RoundRect,0.125000X-0.625000X0.125000X-0.625000X-0.125000X0.625000X-0.125000X0.625000X0.125000X0*%
%ADD24RotRect,4.000000X4.000000X60.000000*%
%ADD25RotRect,1.700000X1.700000X330.000000*%
%ADD26HorizOval,1.700000X0.000000X0.000000X0.000000X0.000000X0*%
G04 APERTURE END LIST*
D10*
X232709999Y-143649103D03*
D11*
X233979999Y-145848808D03*
X235249999Y-148048512D03*
X236519999Y-150248217D03*
D12*
X172439999Y-150260896D03*
D13*
X173709999Y-148061191D03*
X174979999Y-145861487D03*
X176249999Y-143661782D03*
D14*
X208209999Y-199229999D03*
D15*
X205669999Y-199229999D03*
X203129999Y-199229999D03*
X200589999Y-199229999D03*
D16*
X207919999Y-162229999D03*
D17*
X204419999Y-168329999D03*
D18*
X192220000Y-155182500D03*
X191270000Y-155182500D03*
X190320000Y-155182500D03*
X190320000Y-157457500D03*
X192220000Y-157457500D03*
D19*
X207339999Y-145349999D03*
D20*
X204790000Y-145350000D03*
X202240000Y-145350000D03*
D21*
X189217500Y-173040000D03*
X188082500Y-173040000D03*
D22*
X191440000Y-175215000D03*
X190640000Y-175215000D03*
X189840000Y-175215000D03*
X189040000Y-175215000D03*
X188240000Y-175215000D03*
X187440000Y-175215000D03*
X186640000Y-175215000D03*
X185840000Y-175215000D03*
D23*
X184465000Y-176590000D03*
X184465000Y-177390000D03*
X184465000Y-178190000D03*
X184465000Y-178990000D03*
X184465000Y-179790000D03*
X184465000Y-180590000D03*
X184465000Y-181390000D03*
X184465000Y-182190000D03*
D22*
X185840000Y-183565000D03*
X186640000Y-183565000D03*
X187440000Y-183565000D03*
X188240000Y-183565000D03*
X189040000Y-183565000D03*
X189840000Y-183565000D03*
X190640000Y-183565000D03*
X191440000Y-183565000D03*
D23*
X192815000Y-182190000D03*
X192815000Y-181390000D03*
X192815000Y-180590000D03*
X192815000Y-179790000D03*
X192815000Y-178990000D03*
X192815000Y-178190000D03*
X192815000Y-177390000D03*
X192815000Y-176590000D03*
D24*
X200919999Y-162229999D03*
D25*
X226719999Y-172860294D03*
D26*
X225449999Y-175059999D03*
X224179999Y-177259703D03*
X222909999Y-179459408D03*
D21*
X192387500Y-150840000D03*
X191252500Y-150840000D03*
X191127500Y-160080000D03*
X189992500Y-160080000D03*
M02*
